# Blender v2.90.1 OBJ File: 'bookshelf.blend'
# www.blender.org
mtllib bookshelf.mtl
o Desk_Cube.001
v 1.828355 5.305882 0.613238
v 1.518355 0.350237 0.427238
v 1.518355 0.350237 0.607238
v 1.528355 5.305882 0.613238
v 1.828355 5.305882 0.433238
v 1.818355 0.350237 0.607238
v 1.818355 0.350237 0.427238
v 1.528355 5.264069 0.643238
v 1.518355 0.400237 0.643238
v 1.818355 0.400237 0.643238
v 1.828355 5.264069 0.643238
v 1.881688 5.264069 0.613238
v 1.881688 5.264069 0.433238
v 1.871688 0.400237 0.607238
v 1.871688 0.400237 0.427238
v 1.552771 -0.005532 0.447888
v 1.552771 -0.005532 0.586589
v 1.783939 -0.005532 0.447888
v 1.783939 -0.005532 0.586589
v 1.518355 0.172353 0.607238
v 1.818355 0.172353 0.427238
v 1.818355 0.172353 0.607238
v 1.518355 0.172353 0.427238
v 1.828355 5.305882 -0.586762
v 1.518355 0.350237 -0.400762
v 1.518355 0.350237 -0.580762
v 1.528355 5.305882 -0.586762
v 1.828355 5.305882 0.013238
v 1.495022 0.350237 0.013238
v 1.828355 5.305882 -0.406762
v 1.828355 0.350237 0.013238
v 1.818355 0.350237 -0.580762
v 1.818355 0.350237 -0.400762
v 1.673586 5.264069 -0.616762
v 1.663586 0.400237 -0.616762
v 1.818355 0.400237 -0.616762
v 1.828355 5.264069 -0.616762
v 1.881688 5.264069 -0.586762
v 1.881688 5.264069 -0.406762
v 1.881688 5.264069 0.013238
v 1.871688 0.400237 -0.580762
v 1.871688 0.400237 -0.400762
v 1.881688 0.400237 0.013238
v 1.552771 -0.005532 -0.421411
v 1.552771 -0.005532 -0.560112
v 1.783939 -0.005532 -0.421411
v 1.783939 -0.005532 -0.560112
v 1.518355 0.172353 -0.580762
v 1.818355 0.172353 -0.400762
v 1.818355 0.172353 -0.580762
v 1.518355 0.172353 -0.400762
v 1.673586 5.264069 0.544422
v 1.663586 0.400237 0.544422
v 1.663586 0.509963 0.544422
v 1.663586 0.509963 -0.616762
v 1.673586 5.154343 -0.616762
v 1.673586 5.154343 0.544422
v 1.663586 0.509963 -0.505821
v 1.673586 5.154343 -0.505821
v 1.671586 4.225467 -0.505821
v 1.669586 3.296591 -0.505821
v 1.667586 2.367715 -0.505821
v 1.665586 1.438839 -0.505821
v 1.665586 1.438839 0.544422
v 1.667586 2.367715 0.544422
v 1.669586 3.296591 0.544422
v 1.671586 4.225467 0.544422
v 1.665586 1.329113 0.544422
v 1.665586 1.329113 -0.505821
v 1.667586 2.257989 -0.505821
v 1.667586 2.257989 0.544422
v 1.669586 3.186865 -0.505821
v 1.669586 3.186865 0.544422
v 1.671586 4.115741 -0.505821
v 1.671586 4.115741 0.544422
v -1.828355 5.305882 0.613238
v -1.518355 0.350237 0.427238
v -1.518355 0.350237 0.607238
v -1.528355 5.305882 0.613238
v -1.828355 5.305882 0.433238
v -1.818355 0.350237 0.607238
v -1.818355 0.350237 0.427238
v -1.528355 5.264069 0.643238
v -1.518355 0.400237 0.643238
v -1.818355 0.400237 0.643238
v -1.828355 5.264069 0.643238
v -1.881688 5.264069 0.613238
v -1.881688 5.264069 0.433238
v -1.871688 0.400237 0.607238
v -1.871688 0.400237 0.427238
v -1.552771 -0.005532 0.447888
v -1.552771 -0.005532 0.586589
v -1.783939 -0.005532 0.447888
v -1.783939 -0.005532 0.586589
v -1.518355 0.172353 0.607238
v -1.818355 0.172353 0.427238
v -1.818355 0.172353 0.607238
v -1.518355 0.172353 0.427238
v -1.828355 5.305882 -0.586762
v -1.518355 0.350237 -0.400762
v -1.518355 0.350237 -0.580762
v -1.528355 5.305882 -0.586762
v -1.828355 5.305882 0.013238
v -1.495022 0.350237 0.013238
v 0.000000 5.305882 0.013238
v -1.828355 5.305882 -0.406762
v -1.828355 0.350237 0.013238
v -1.818355 0.350237 -0.580762
v -1.818355 0.350237 -0.400762
v -1.673586 5.264069 -0.616762
v -1.663586 0.400237 -0.616762
v -1.818355 0.400237 -0.616762
v -1.828355 5.264069 -0.616762
v -1.881688 5.264069 -0.586762
v -1.881688 5.264069 -0.406762
v -1.881688 5.264069 0.013238
v -1.871688 0.400237 -0.580762
v -1.871688 0.400237 -0.400762
v -1.881688 0.400237 0.013238
v -1.552771 -0.005532 -0.421411
v -1.552771 -0.005532 -0.560112
v -1.783939 -0.005532 -0.421411
v -1.783939 -0.005532 -0.560112
v -1.518355 0.172353 -0.580762
v -1.818355 0.172353 -0.400762
v -1.818355 0.172353 -0.580762
v -1.518355 0.172353 -0.400762
v -1.673586 5.264069 0.544422
v -1.663586 0.400237 0.544422
v 0.000000 5.264069 0.643238
v 0.000000 0.350237 0.013238
v 0.000000 0.350237 0.607238
v 0.000000 5.305882 0.613238
v 0.000000 0.400237 0.643238
v 0.000000 0.350237 0.427238
v 0.000000 5.264069 -0.616762
v 0.000000 0.350237 -0.580762
v 0.000000 5.305882 -0.586762
v 0.000000 0.400237 -0.616762
v 0.000000 0.350237 -0.400762
v 0.000000 5.264069 0.544422
v 0.000000 0.400237 0.544422
v 0.000000 0.400237 -0.616762
v 0.000000 0.400237 0.544422
v 0.000000 5.264069 -0.616762
v 0.000000 5.264069 0.544422
v -1.663586 0.509963 0.544422
v -1.663586 0.509963 -0.616762
v 0.000000 0.509963 -0.616762
v 0.000000 0.509963 0.544422
v -1.673586 5.154343 -0.616762
v -1.673586 5.154343 0.544422
v 0.000000 5.154343 -0.616762
v 0.000000 5.154343 0.544422
v -1.663586 0.509963 -0.505821
v 0.000000 0.509963 -0.505821
v -1.673586 5.154343 -0.505821
v 0.000000 5.154343 -0.505821
v 0.000000 1.438839 0.544422
v 0.000000 2.367715 0.544422
v 0.000000 3.296591 0.544422
v 0.000000 4.225467 0.544422
v -1.671586 4.225467 -0.505821
v -1.669586 3.296591 -0.505821
v -1.667586 2.367715 -0.505821
v -1.665586 1.438839 -0.505821
v -1.665586 1.438839 0.544422
v -1.667586 2.367715 0.544422
v -1.669586 3.296591 0.544422
v -1.671586 4.225467 0.544422
v 0.000000 4.225467 -0.505821
v 0.000000 3.296591 -0.505821
v 0.000000 2.367715 -0.505821
v 0.000000 1.438839 -0.505821
v 0.000000 1.329113 0.544422
v -1.665586 1.329113 0.544422
v -1.665586 1.329113 -0.505821
v 0.000000 1.329113 -0.505821
v 0.000000 2.257989 0.544422
v 0.000000 2.257989 -0.505821
v -1.667586 2.257989 -0.505821
v -1.667586 2.257989 0.544422
v 0.000000 3.186865 0.544422
v 0.000000 3.186865 -0.505821
v -1.669586 3.186865 -0.505821
v -1.669586 3.186865 0.544422
v 0.000000 4.115741 0.544422
v 0.000000 4.115741 -0.505821
v -1.671586 4.115741 -0.505821
v -1.671586 4.115741 0.544422
vt 0.362266 1.564453
vt 0.273369 1.116196
vt 0.319720 1.076043
vt 0.449026 1.493567
vt 0.339479 1.042240
vt 0.473850 1.463177
vt 0.324777 -0.490368
vt 0.473065 -0.352537
vt 0.311912 0.108940
vt 0.345457 1.031624
vt 0.481231 1.453802
vt 0.318667 1.039397
vt 0.321931 1.034572
vt 0.318418 0.119224
vt 0.291109 0.175889
vt 0.287024 0.166589
vt 0.225858 0.132560
vt 0.269303 0.151911
vt 0.266839 0.166446
vt 0.224653 0.146526
vt 0.284186 0.179250
vt 0.192699 -0.241279
vt 0.193262 1.461011
vt 0.178406 1.460922
vt 0.177844 -0.241373
vt 0.262360 1.049936
vt 0.300101 1.022220
vt 0.316182 1.031893
vt 0.317271 1.004789
vt 0.318353 1.028041
vt 0.125345 -0.241519
vt 0.125908 1.460775
vt 0.319955 0.994966
vt 0.224761 1.460891
vt 0.224199 -0.241398
vt 0.296668 -0.241669
vt 0.298258 1.460613
vt 0.297509 1.007604
vt 0.313957 0.994167
vt 0.260183 1.035896
vt 0.319040 1.033305
vt 0.318344 1.031991
vt 0.318443 1.034045
vt 0.318062 1.032734
vt 0.275185 1.612568
vt 0.224826 1.136786
vt 0.247556 1.622747
vt 0.199938 1.137487
vt 0.157093 0.038878
vt 0.170244 -0.511181
vt 0.239150 1.625944
vt 0.190931 1.104097
vt 0.213644 1.108246
vt 0.209531 1.108993
vt 0.161923 0.126960
vt 0.156217 0.134338
vt 0.148771 0.089470
vt 0.181939 0.137391
vt 0.181854 0.122573
vt 0.163651 0.140725
vt 0.400636 -0.242056
vt 0.415492 -0.242261
vt 0.418111 1.460027
vt 0.403256 1.460226
vt 0.222391 1.070465
vt 0.213053 1.098949
vt 0.209880 1.098832
vt 0.200790 1.074429
vt 0.195306 1.068496
vt 0.371755 1.460342
vt 0.369136 -0.241940
vt 0.201209 1.061616
vt 0.220382 1.054884
vt 0.211355 1.102078
vt 0.211275 1.104088
vt 0.211842 1.102271
vt 0.211999 1.103835
vt 0.234590 1.627550
vt 0.906616 0.826562
vt 1.048266 0.826562
vt 1.048266 0.853332
vt 1.034733 0.853332
vt 0.906616 0.853332
vt -0.141547 1.460029
vt -0.140359 -0.242261
vt 0.481231 -0.341217
vt 0.160661 -0.511974
vt 0.155411 -0.512297
vt 0.129044 0.088599
vt 0.135684 -0.513168
vt 0.156214 1.115679
vt 0.173668 1.109856
vt 0.217327 1.633309
vt 0.199873 1.639132
vt 0.703679 0.826561
vt 0.703678 0.853332
vt 0.109099 0.087718
vt 0.115739 -0.514048
vt 0.845330 0.799209
vt 1.049488 0.799209
vt 1.049488 0.825980
vt 0.845330 0.825980
vt 0.703678 0.799209
vt 0.717212 0.825980
vt 0.703679 0.825980
vt 0.134772 0.124978
vt 0.177165 1.080170
vt 0.442674 -0.204136
vt 0.445096 1.421345
vt 0.462088 -0.204252
vt 0.462572 0.120844
vt 0.463056 0.445937
vt 0.463541 0.771037
vt 0.464026 1.096132
vt 0.464511 1.421229
vt 0.645873 -0.205348
vt 0.936988 -0.208338
vt 0.937823 0.116754
vt 0.938658 0.441846
vt 0.939492 0.766938
vt 0.940327 1.092031
vt 0.941162 1.417123
vt 0.648297 1.420132
vt 0.647812 1.095036
vt 0.647327 0.769940
vt 0.646843 0.444843
vt 0.646358 0.119748
vt -0.079718 0.079384
vt -0.073078 -0.522382
vt -0.009018 1.170804
vt 0.034641 1.694257
vt 0.485252 0.083254
vt 0.504824 -0.164212
vt 0.701053 -0.102132
vt 0.681480 0.145334
vt 0.712914 0.138441
vt 0.921435 0.164993
vt 0.913074 0.427647
vt 0.704552 0.401094
vt 0.931683 -0.522382
vt 1.140438 -0.495830
vt 1.132087 -0.233198
vt 0.923332 -0.259750
vt 0.712891 -0.522382
vt 0.921879 -0.495831
vt 0.913538 -0.233220
vt 0.704550 -0.259771
vt 0.498473 -0.373031
vt 0.703098 -0.485821
vt 0.703098 -0.127986
vt 0.514355 -0.185923
vt 0.728812 0.766920
vt 0.703678 0.428536
vt 0.903043 0.451310
vt 0.907250 0.633214
vt 0.947566 0.106119
vt 0.922460 -0.232310
vt 1.122054 -0.209533
vt 1.126252 -0.027603
vt 0.728757 0.106140
vt 0.703678 -0.232334
vt 0.903502 -0.209554
vt 0.907691 -0.027599
vt 0.481811 -0.392100
vt 1.140438 -0.011315
vt 0.953645 0.137833
vt 0.921435 0.649492
vt 0.921879 -0.011301
vt 0.734898 0.798628
vt 0.697848 -0.522382
vt 0.734830 0.137860
vt 0.319720 1.076043
vt 0.273369 1.116196
vt 0.339479 1.042240
vt 0.311912 0.108940
vt 0.345457 1.031624
vt 0.318667 1.039397
vt 0.321931 1.034572
vt 0.287024 0.166589
vt 0.291109 0.175889
vt 0.318418 0.119224
vt 0.225858 0.132560
vt 0.224653 0.146526
vt 0.266839 0.166446
vt 0.269303 0.151911
vt 0.284186 0.179250
vt 0.192699 -0.241279
vt 0.177844 -0.241373
vt 0.178406 1.460922
vt 0.193262 1.461011
vt 0.300101 1.022220
vt 0.262360 1.049936
vt 0.316182 1.031893
vt 0.318353 1.028041
vt 0.317271 1.004789
vt 0.125345 -0.241519
vt 0.125908 1.460775
vt 0.319955 0.994966
vt 0.224761 1.460891
vt 0.224199 -0.241398
vt 0.298258 1.460613
vt 0.296668 -0.241669
vt 0.313957 0.994167
vt 0.297509 1.007604
vt 0.260183 1.035896
vt 0.318344 1.031991
vt 0.319040 1.033305
vt 0.318062 1.032734
vt 0.318443 1.034045
vt 0.224826 1.136786
vt 0.199938 1.137487
vt 0.157093 0.038878
vt 0.190931 1.104097
vt 0.213644 1.108246
vt 0.209531 1.108993
vt 0.148771 0.089470
vt 0.156217 0.134338
vt 0.161923 0.126960
vt 0.181854 0.122573
vt 0.181939 0.137391
vt 0.163651 0.140725
vt 0.400636 -0.242056
vt 0.403256 1.460226
vt 0.418111 1.460027
vt 0.415492 -0.242261
vt 0.222391 1.070465
vt 0.213053 1.098949
vt 0.200790 1.074429
vt 0.209880 1.098832
vt 0.195306 1.068496
vt 0.371755 1.460342
vt 0.369136 -0.241940
vt 0.220382 1.054884
vt 0.201209 1.061616
vt 0.211275 1.104088
vt 0.211355 1.102078
vt 0.211999 1.103835
vt 0.211842 1.102271
vt 0.906616 0.826562
vt 0.906616 0.853332
vt 1.034733 0.853332
vt 1.048266 0.853332
vt 1.048266 0.826562
vt 0.129044 0.088599
vt 0.156214 1.115679
vt 0.173668 1.109856
vt 0.109099 0.087718
vt 0.845330 0.799209
vt 0.845330 0.825980
vt 0.703678 0.799209
vt 0.703679 0.825980
vt 0.717212 0.825980
vt 0.134772 0.124978
vt 0.177165 1.080170
vt 0.445096 1.421345
vt 0.442674 -0.204136
vt 0.462088 -0.204252
vt 0.464511 1.421229
vt 0.464026 1.096132
vt 0.463541 0.771037
vt 0.463056 0.445937
vt 0.462572 0.120844
vt 0.645873 -0.205348
vt 0.646358 0.119748
vt 0.646843 0.444843
vt 0.647327 0.769940
vt 0.647812 1.095036
vt 0.648297 1.420132
vt -0.079718 0.079384
vt -0.009018 1.170804
vt 0.485252 0.083254
vt 0.504824 -0.164212
vt 0.913074 0.427647
vt 0.921435 0.164993
vt 1.132087 -0.233198
vt 1.140438 -0.495830
vt 0.913538 -0.233220
vt 0.921879 -0.495831
vt 0.498473 -0.373031
vt 0.514355 -0.185923
vt 0.907250 0.633214
vt 0.903043 0.451310
vt 1.126252 -0.027603
vt 1.122054 -0.209533
vt 0.907691 -0.027599
vt 0.903502 -0.209554
vt 0.481811 -0.392100
vt 1.140438 -0.011315
vt 0.921435 0.649492
vt 0.921879 -0.011301
vn 0.0000 -1.0000 0.0000
vn 0.0000 1.0000 0.0000
vn 0.0000 -0.5843 0.8115
vn -1.0000 0.0000 0.0000
vn 0.0000 0.5830 0.8125
vn 0.6170 0.7870 0.0000
vn 0.4157 0.5302 0.7390
vn 0.5262 -0.0016 0.8504
vn 1.0000 0.0000 0.0000
vn 0.0000 0.0000 1.0000
vn 1.0000 -0.0021 0.0000
vn 0.9999 -0.0010 0.0120
vn 0.6839 -0.7295 0.0000
vn 0.6838 -0.7294 0.0165
vn 0.4804 -0.5125 0.7117
vn 0.0000 -0.1153 0.9933
vn 0.0000 -0.1153 -0.9933
vn 0.0000 0.0000 -1.0000
vn 0.9818 -0.1900 0.0000
vn -0.9818 -0.1899 0.0000
vn 0.0000 -0.5843 -0.8115
vn 0.0000 0.5830 -0.8125
vn 0.4157 0.5302 -0.7390
vn 0.5262 -0.0016 -0.8504
vn 0.9999 -0.0010 -0.0120
vn 0.6838 -0.7294 -0.0165
vn 0.4804 -0.5125 -0.7117
vn 0.9818 -0.1899 0.0000
vn -1.0000 0.0022 0.0000
vn -0.6170 0.7870 0.0000
vn -0.4157 0.5302 0.7390
vn -0.5262 -0.0016 0.8504
vn -1.0000 -0.0021 0.0000
vn -0.9999 -0.0010 0.0120
vn -0.6839 -0.7295 0.0000
vn -0.6838 -0.7294 0.0165
vn -0.4804 -0.5125 0.7117
vn -0.9818 -0.1900 0.0000
vn -0.4157 0.5302 -0.7390
vn -0.5262 -0.0016 -0.8504
vn -0.9999 -0.0010 -0.0120
vn -0.6838 -0.7294 -0.0165
vn -0.4804 -0.5125 -0.7117
vn 1.0000 0.0022 0.0000
usemtl Material
s off
f 131/1/1 29/2/1 2/3/1 135/4/1
f 135/4/1 2/3/1 3/5/1 132/6/1
f 105/7/2 133/8/2 4/9/2
f 132/6/3 3/5/3 9/10/3 134/11/3
f 23/12/4 20/13/4 3/5/4 2/3/4
f 4/9/5 8/14/5 11/15/5 1/16/5
f 28/17/6 5/18/6 13/19/6 40/20/6
f 12/21/7 1/16/7 11/15/7
f 14/22/8 12/23/8 11/24/8 10/25/8
f 2/3/1 29/2/1 31/26/1 7/27/1
f 21/28/9 7/27/9 6/29/9 22/30/9
f 5/18/2 4/9/2 1/16/2
f 105/7/2 4/9/2 5/18/2
f 5/18/2 28/17/2 105/7/2
f 9/31/10 10/25/10 11/24/10 8/32/10
f 6/29/3 10/33/3 9/10/3 3/5/3
f 13/34/11 12/23/11 14/22/11 15/35/11
f 13/34/12 15/35/12 43/36/12 40/37/12
f 6/29/13 7/27/13 15/38/13 14/39/13
f 5/18/6 1/16/6 12/21/6 13/19/6
f 7/27/14 31/26/14 43/40/14 15/38/14
f 10/33/15 6/29/15 14/39/15
f 20/13/16 17/41/16 19/42/16 22/30/16
f 19/42/1 17/41/1 16/43/1 18/44/1
f 23/12/17 21/28/17 18/44/17 16/43/17
f 2/3/18 7/27/18 21/28/18 23/12/18
f 3/5/10 20/13/10 22/30/10 6/29/10
f 18/44/19 21/28/19 22/30/19 19/42/19
f 16/43/20 17/41/20 20/13/20 23/12/20
f 131/1/1 140/45/1 25/46/1 29/2/1
f 140/45/1 137/47/1 26/48/1 25/46/1
f 105/7/2 27/49/2 138/50/2
f 137/47/21 139/51/21 35/52/21 26/48/21
f 51/53/4 25/46/4 26/48/4 48/54/4
f 27/49/22 24/55/22 37/56/22 34/57/22
f 28/17/6 40/20/6 39/58/6 30/59/6
f 38/60/23 37/56/23 24/55/23
f 41/61/24 36/62/24 37/63/24 38/64/24
f 25/46/1 33/65/1 31/26/1 29/2/1
f 49/66/9 50/67/9 32/68/9 33/65/9
f 30/59/2 24/55/2 27/49/2
f 105/7/2 30/59/2 27/49/2
f 30/59/2 105/7/2 28/17/2
f 32/68/21 26/48/21 35/52/21 36/69/21
f 39/70/11 42/71/11 41/61/11 38/64/11
f 39/70/25 40/37/25 43/36/25 42/71/25
f 32/68/13 41/72/13 42/73/13 33/65/13
f 30/59/6 39/58/6 38/60/6 24/55/6
f 33/65/26 42/73/26 43/40/26 31/26/26
f 36/69/27 41/72/27 32/68/27
f 48/54/17 50/67/17 47/74/17 45/75/17
f 47/74/1 46/76/1 44/77/1 45/75/1
f 51/53/16 44/77/16 46/76/16 49/66/16
f 25/46/10 51/53/10 49/66/10 33/65/10
f 26/48/18 32/68/18 50/67/18 48/54/18
f 46/76/28 47/74/28 50/67/28 49/66/28
f 44/77/20 51/53/20 48/54/20 45/75/20
f 35/52/10 139/51/10 143/78/10
f 53/79/9 35/80/9 55/81/9 58/82/9 54/83/9
f 8/32/10 130/84/10 134/85/10 9/31/10
f 8/14/5 4/9/5 133/8/5 130/86/5
f 34/57/22 136/87/22 138/50/22 27/49/22
f 145/88/18 34/57/18 56/89/18 153/90/18
f 136/87/10 34/57/10 145/88/10
f 58/91/2 55/92/2 149/93/2 156/94/2
f 35/52/18 143/78/18 149/93/18 55/92/18
f 144/95/10 53/79/10 54/83/10 150/96/10
f 59/97/1 158/98/1 153/90/1 56/89/1
f 52/99/10 146/100/10 154/101/10 57/102/10
f 34/103/9 52/99/9 57/102/9 59/104/9 56/105/9
f 34/57/18 37/56/18 56/106/18
f 36/69/18 35/52/18 55/107/18
f 36/62/18 55/108/18 56/109/18 37/63/18
f 58/110/29 63/111/29 62/112/29 61/113/29 60/114/29 59/115/29 56/109/29 55/108/29
f 54/116/18 150/117/18 159/118/18 160/119/18 161/120/18 162/121/18 154/122/18 57/123/18 67/124/18 66/125/18 65/126/18 64/127/18
f 54/116/29 64/127/29 65/126/29 66/125/29 67/124/29 57/123/29 59/115/29 60/114/29 61/113/29 62/112/29 63/111/29 58/110/29
f 57/128/1 154/129/1 158/98/1 59/97/1
f 54/130/2 58/91/2 156/94/2 150/131/2
f 64/132/2 63/133/2 174/134/2 159/135/2
f 160/136/2 65/137/2 62/138/2 173/139/2
f 161/140/2 66/141/2 61/142/2 172/143/2
f 162/144/2 67/145/2 60/146/2 171/147/2
f 68/148/1 175/149/1 178/150/1 69/151/1
f 179/152/1 180/153/1 70/154/1 71/155/1
f 183/156/1 184/157/1 72/158/1 73/159/1
f 187/160/1 188/161/1 74/162/1 75/163/1
f 63/133/9 64/164/9 68/148/9 69/151/9
f 172/143/18 61/142/18 72/158/18 184/157/18
f 61/142/9 66/165/9 73/159/9 72/158/9
f 174/134/18 63/133/18 69/151/18 178/150/18
f 66/165/10 161/166/10 183/156/10 73/159/10
f 173/139/18 62/138/18 70/154/18 180/153/18
f 171/147/18 60/146/18 74/162/18 188/161/18
f 62/138/9 65/167/9 71/155/9 70/154/9
f 60/146/9 67/168/9 75/163/9 74/162/9
f 65/167/10 160/169/10 179/152/10 71/155/10
f 64/164/10 159/170/10 175/149/10 68/148/10
f 67/168/10 162/171/10 187/160/10 75/163/10
f 131/1/1 135/4/1 77/172/1 104/173/1
f 135/4/1 132/6/1 78/174/1 77/172/1
f 105/7/2 79/175/2 133/8/2
f 132/6/3 134/11/3 84/176/3 78/174/3
f 98/177/9 77/172/9 78/174/9 95/178/9
f 79/175/5 76/179/5 86/180/5 83/181/5
f 103/182/30 116/183/30 88/184/30 80/185/30
f 87/186/31 86/180/31 76/179/31
f 89/187/32 85/188/32 86/189/32 87/190/32
f 77/172/1 82/191/1 107/192/1 104/173/1
f 96/193/4 97/194/4 81/195/4 82/191/4
f 80/185/2 76/179/2 79/175/2
f 105/7/2 80/185/2 79/175/2
f 80/185/2 105/7/2 103/182/2
f 84/196/10 83/197/10 86/189/10 85/188/10
f 81/195/3 78/174/3 84/176/3 85/198/3
f 88/199/33 90/200/33 89/187/33 87/190/33
f 88/199/34 116/201/34 119/202/34 90/200/34
f 81/195/35 89/203/35 90/204/35 82/191/35
f 80/185/30 88/184/30 87/186/30 76/179/30
f 82/191/36 90/204/36 119/205/36 107/192/36
f 85/198/37 89/203/37 81/195/37
f 95/178/16 97/194/16 94/206/16 92/207/16
f 94/206/1 93/208/1 91/209/1 92/207/1
f 98/177/17 91/209/17 93/208/17 96/193/17
f 77/172/18 98/177/18 96/193/18 82/191/18
f 78/174/10 81/195/10 97/194/10 95/178/10
f 93/208/38 94/206/38 97/194/38 96/193/38
f 91/209/28 98/177/28 95/178/28 92/207/28
f 131/1/1 104/173/1 100/210/1 140/45/1
f 140/45/1 100/210/1 101/211/1 137/47/1
f 105/7/2 138/50/2 102/212/2
f 137/47/21 101/211/21 111/213/21 139/51/21
f 127/214/9 124/215/9 101/211/9 100/210/9
f 102/212/22 110/216/22 113/217/22 99/218/22
f 103/182/30 106/219/30 115/220/30 116/183/30
f 114/221/39 99/218/39 113/217/39
f 117/222/40 114/223/40 113/224/40 112/225/40
f 100/210/1 104/173/1 107/192/1 109/226/1
f 125/227/4 109/226/4 108/228/4 126/229/4
f 106/219/2 102/212/2 99/218/2
f 105/7/2 102/212/2 106/219/2
f 106/219/2 103/182/2 105/7/2
f 108/228/21 112/230/21 111/213/21 101/211/21
f 115/231/33 114/223/33 117/222/33 118/232/33
f 115/231/41 118/232/41 119/202/41 116/201/41
f 108/228/35 109/226/35 118/233/35 117/234/35
f 106/219/30 99/218/30 114/221/30 115/220/30
f 109/226/42 107/192/42 119/205/42 118/233/42
f 112/230/43 108/228/43 117/234/43
f 124/215/17 121/235/17 123/236/17 126/229/17
f 123/236/1 121/235/1 120/237/1 122/238/1
f 127/214/16 125/227/16 122/238/16 120/237/16
f 100/210/10 109/226/10 125/227/10 127/214/10
f 101/211/18 124/215/18 126/229/18 108/228/18
f 122/238/20 125/227/20 126/229/20 123/236/20
f 120/237/28 121/235/28 124/215/28 127/214/28
f 111/213/10 143/78/10 139/51/10
f 129/239/4 147/240/4 155/241/4 148/242/4 111/243/4
f 83/197/10 84/196/10 134/85/10 130/84/10
f 83/181/5 130/86/5 133/8/5 79/175/5
f 110/216/22 102/212/22 138/50/22 136/87/22
f 145/88/18 153/90/18 151/244/18 110/216/18
f 136/87/10 145/88/10 110/216/10
f 155/245/2 156/94/2 149/93/2 148/246/2
f 111/213/18 148/246/18 149/93/18 143/78/18
f 144/95/10 150/96/10 147/240/10 129/239/10
f 157/247/1 151/244/1 153/90/1 158/98/1
f 128/248/10 152/249/10 154/101/10 146/100/10
f 110/250/4 151/251/4 157/252/4 152/249/4 128/248/4
f 110/216/18 151/253/18 113/217/18
f 112/230/18 148/254/18 111/213/18
f 112/225/18 113/224/18 151/255/18 148/256/18
f 155/257/44 148/256/44 151/255/44 157/258/44 163/259/44 164/260/44 165/261/44 166/262/44
f 147/263/18 167/264/18 168/265/18 169/266/18 170/267/18 152/268/18 154/122/18 162/121/18 161/120/18 160/119/18 159/118/18 150/117/18
f 147/263/44 155/257/44 166/262/44 165/261/44 164/260/44 163/259/44 157/258/44 152/268/44 170/267/44 169/266/44 168/265/44 167/264/44
f 152/269/1 157/247/1 158/98/1 154/129/1
f 147/270/2 150/131/2 156/94/2 155/245/2
f 167/271/2 159/135/2 174/134/2 166/272/2
f 160/136/2 173/139/2 165/273/2 168/274/2
f 161/140/2 172/143/2 164/275/2 169/276/2
f 162/144/2 171/147/2 163/277/2 170/278/2
f 176/279/1 177/280/1 178/150/1 175/149/1
f 179/152/1 182/281/1 181/282/1 180/153/1
f 183/156/1 186/283/1 185/284/1 184/157/1
f 187/160/1 190/285/1 189/286/1 188/161/1
f 166/272/4 177/280/4 176/279/4 167/287/4
f 172/143/18 184/157/18 185/284/18 164/275/18
f 164/275/4 185/284/4 186/283/4 169/288/4
f 174/134/18 178/150/18 177/280/18 166/272/18
f 169/288/10 186/283/10 183/156/10 161/166/10
f 173/139/18 180/153/18 181/282/18 165/273/18
f 171/147/18 188/161/18 189/286/18 163/277/18
f 165/273/4 181/282/4 182/281/4 168/289/4
f 163/277/4 189/286/4 190/285/4 170/290/4
f 168/289/10 182/281/10 179/152/10 160/169/10
f 167/287/10 176/279/10 175/149/10 159/170/10
f 170/290/10 190/285/10 187/160/10 162/171/10
l 142 53
l 52 141
l 144 142
l 141 146
l 142 129
l 128 141
