# Blender v2.90.1 OBJ File: 'DiningTable.blend'
# www.blender.org
mtllib DiningTable.mtl
o Desk_Cube.001
v -4.745468 -0.707458 1.621957
v -4.818295 1.262542 1.694783
v -4.508295 0.883699 1.384783
v -4.508295 0.883699 1.684783
v -4.518295 1.262542 1.694783
v -4.571122 -0.707458 1.621957
v -4.745468 -0.707458 1.447610
v -4.571122 -0.707458 1.447610
v -4.818295 1.262542 1.394783
v -4.808295 0.883699 1.684783
v -4.808295 0.883699 1.384783
v -4.518295 1.220729 1.744783
v -4.508295 0.933699 1.744783
v -4.808295 0.933699 1.744783
v -4.818295 1.220729 1.744783
v -4.871628 1.220729 1.694783
v -4.871628 1.220729 1.394783
v -4.861628 0.933699 1.684783
v -4.861628 0.933699 1.384783
v -4.542710 0.527930 1.419199
v -4.542710 0.527930 1.650367
v -4.773879 0.527930 1.419199
v -4.773879 0.527930 1.650367
v -4.508295 -0.479950 1.384783
v -4.508295 -0.479950 1.684783
v -4.808295 -0.479950 1.384783
v -4.808295 -0.479950 1.684783
v -4.508295 0.705814 1.684783
v -4.808295 0.705814 1.384783
v -4.808295 0.705814 1.684783
v -4.508295 0.705814 1.384783
v 4.745468 -0.707458 1.621957
v 4.818295 1.262542 1.694783
v 4.508295 0.883699 1.384783
v 4.508295 0.883699 1.684783
v 4.518295 1.262542 1.694783
v 4.571122 -0.707458 1.621957
v 4.745468 -0.707458 1.447610
v 0.000000 0.883699 1.694783
v 0.000000 1.262542 1.694783
v 4.571122 -0.707458 1.447610
v 0.000000 0.883699 1.194783
v 4.818295 1.262542 1.394783
v 4.808295 0.883699 1.684783
v 4.808295 0.883699 1.384783
v 0.000000 1.220729 1.744783
v 4.518295 1.220729 1.744783
v 4.508295 0.933699 1.744783
v 4.808295 0.933699 1.744783
v 4.818295 1.220729 1.744783
v 0.000000 0.933699 1.744783
v 4.871628 1.220729 1.694783
v 4.871628 1.220729 1.394783
v 4.861628 0.933699 1.684783
v 4.861628 0.933699 1.384783
v 4.542710 0.527930 1.419199
v 4.542710 0.527930 1.650367
v 4.773879 0.527930 1.419199
v 4.773879 0.527930 1.650367
v 4.508295 -0.479950 1.384783
v 4.508295 -0.479950 1.684783
v 4.808295 -0.479950 1.384783
v 4.808295 -0.479950 1.684783
v 4.508295 0.705814 1.684783
v 4.808295 0.705814 1.384783
v 4.808295 0.705814 1.684783
v 4.508295 0.705814 1.384783
v -4.745468 -0.707458 -1.621957
v -4.818295 1.262542 -1.694783
v -4.508295 0.883699 -1.384783
v -4.508295 0.883699 -1.684783
v -4.518295 1.262542 -1.694783
v -4.571122 -0.707458 -1.621957
v -4.745468 -0.707458 -1.447610
v -4.818295 1.262540 0.000000
v -4.484962 0.883699 0.000000
v -4.571122 -0.707458 -1.447610
v -4.818295 1.262542 -1.394783
v -4.818295 0.883699 0.000000
v -4.808295 0.883699 -1.684783
v -4.808295 0.883699 -1.384783
v -4.518295 1.220729 -1.744783
v -4.508295 0.933699 -1.744783
v -4.808295 0.933699 -1.744783
v -4.818295 1.220729 -1.744783
v -4.871628 1.220729 -1.694783
v -4.871628 1.220729 -1.394783
v -4.871628 1.220729 0.000000
v -4.861628 0.933699 -1.684783
v -4.861628 0.933699 -1.384783
v -4.871628 0.933699 0.000000
v -4.542710 0.527930 -1.419199
v -4.542710 0.527930 -1.650367
v -4.773879 0.527930 -1.419199
v -4.773879 0.527930 -1.650367
v -4.508295 -0.479950 -1.384783
v -4.508295 -0.479950 -1.684783
v -4.808295 -0.479950 -1.384783
v -4.808295 -0.479950 -1.684783
v -4.508295 0.705814 -1.684783
v -4.808295 0.705814 -1.384783
v -4.808295 0.705814 -1.684783
v -4.508295 0.705814 -1.384783
v 4.745468 -0.707458 -1.621957
v 4.818295 1.262542 -1.694783
v 4.508295 0.883699 -1.384783
v 4.508295 0.883699 -1.684783
v 4.518295 1.262542 -1.694783
v 4.571122 -0.707458 -1.621957
v 4.745468 -0.707458 -1.447610
v 0.000000 0.883699 -1.694783
v 0.000000 1.262542 -1.694783
v 4.818295 1.262540 0.000000
v 4.484962 0.883699 0.000000
v 0.000000 0.883699 0.000000
v 0.000000 1.262540 0.000000
v 4.571122 -0.707458 -1.447610
v 0.000000 0.883699 -1.194783
v 4.818295 1.262542 -1.394783
v 4.818295 0.883699 0.000000
v 4.808295 0.883699 -1.684783
v 4.808295 0.883699 -1.384783
v 0.000000 1.220729 -1.744783
v 4.518295 1.220729 -1.744783
v 4.508295 0.933699 -1.744783
v 4.808295 0.933699 -1.744783
v 4.818295 1.220729 -1.744783
v 0.000000 0.933699 -1.744783
v 4.871628 1.220729 -1.694783
v 4.871628 1.220729 -1.394783
v 4.871628 1.220729 0.000000
v 4.861628 0.933699 -1.684783
v 4.861628 0.933699 -1.384783
v 4.871628 0.933699 0.000000
v 4.542710 0.527930 -1.419199
v 4.542710 0.527930 -1.650367
v 4.773879 0.527930 -1.419199
v 4.773879 0.527930 -1.650367
v 4.508295 -0.479950 -1.384783
v 4.508295 -0.479950 -1.684783
v 4.808295 -0.479950 -1.384783
v 4.808295 -0.479950 -1.684783
v 4.508295 0.705814 -1.684783
v 4.808295 0.705814 -1.384783
v 4.808295 0.705814 -1.684783
v 4.508295 0.705814 -1.384783
vt 0.127832 0.589936
vt 0.130445 0.590798
vt 0.117386 0.625867
vt 0.114772 0.625004
vt 0.316351 0.796505
vt 0.157205 0.166482
vt 0.157205 0.166482
vt 0.316351 0.796505
vt 0.083687 0.575374
vt 0.107066 0.583086
vt 0.094007 0.618154
vt 0.070628 0.610442
vt 0.143505 0.555729
vt 0.167233 0.563557
vt 0.154173 0.598625
vt 0.141114 0.633694
vt 0.157205 0.166482
vt 0.157205 0.166482
vt 0.157205 0.166482
vt 0.157205 0.166482
vt 0.157205 0.166482
vt 0.157205 0.166482
vt 0.157205 0.166482
vt 0.157205 0.166482
vt 0.157205 0.166482
vt 0.110409 0.584189
vt 0.094199 0.516909
vt 0.148986 0.212194
vt 0.147526 0.216115
vt 0.157205 0.166482
vt 0.105741 0.637039
vt 0.083007 0.546963
vt 0.157205 0.166482
vt 0.325187 0.772777
vt 0.184913 0.726504
vt 0.325187 0.772777
vt 0.176077 0.750232
vt 0.141114 0.633694
vt 0.117386 0.625867
vt 0.176077 0.750232
vt 0.157205 0.166482
vt 0.157205 0.166482
vt 0.166901 0.735466
vt 0.137847 0.265748
vt 0.157726 0.720701
vt 0.140767 0.257907
vt 0.125218 0.589074
vt 0.112158 0.624142
vt 0.097349 0.619257
vt 0.127832 0.589936
vt 0.114772 0.625004
vt 0.117386 0.625867
vt 0.130445 0.590798
vt 0.316351 0.796505
vt 0.316351 0.796505
vt 0.157205 0.166482
vt 0.157205 0.166482
vt 0.083687 0.575374
vt 0.070628 0.610442
vt 0.094007 0.618154
vt 0.107066 0.583086
vt 0.143505 0.555729
vt 0.157205 0.166482
vt 0.157205 0.166482
vt 0.157205 0.166482
vt 0.157205 0.166482
vt 0.157205 0.166482
vt 0.157205 0.166482
vt 0.157205 0.166482
vt 0.157205 0.166482
vt 0.157205 0.166482
vt 0.110409 0.584189
vt 0.094199 0.516909
vt 0.148986 0.212194
vt 0.157205 0.166482
vt 0.147526 0.216115
vt 0.105741 0.637039
vt 0.083007 0.546963
vt 0.176077 0.750232
vt 0.117386 0.625867
vt 0.176077 0.750232
vt 0.157205 0.166482
vt 0.157205 0.166482
vt 0.166901 0.735466
vt 0.157726 0.720701
vt 0.137847 0.265748
vt 0.140767 0.257907
vt 0.125218 0.589074
vt 0.097349 0.619257
vt 0.112158 0.624142
vt 0.127832 0.589936
vt 0.114772 0.625004
vt 0.117386 0.625867
vt 0.130445 0.590798
vt 0.316351 0.796505
vt 0.316351 0.796505
vt 0.157205 0.166482
vt 0.157205 0.166482
vt 0.083687 0.575374
vt 0.070628 0.610442
vt 0.094007 0.618154
vt 0.107066 0.583086
vt 0.154173 0.598625
vt 0.141114 0.633694
vt 0.157205 0.166482
vt 0.157205 0.166482
vt 0.157205 0.166482
vt 0.157205 0.166482
vt 0.157205 0.166482
vt 0.157205 0.166482
vt 0.110409 0.584189
vt 0.094199 0.516909
vt 0.148986 0.212194
vt 0.157205 0.166482
vt 0.147526 0.216115
vt 0.105741 0.637039
vt 0.083007 0.546963
vt 0.325187 0.772777
vt 0.184913 0.726504
vt 0.176077 0.750232
vt 0.325187 0.772777
vt 0.117386 0.625867
vt 0.141114 0.633694
vt 0.176077 0.750232
vt 0.157205 0.166482
vt 0.166901 0.735466
vt 0.157726 0.720701
vt 0.137847 0.265748
vt 0.140767 0.257907
vt 0.125218 0.589074
vt 0.097349 0.619257
vt 0.112158 0.624142
vt 0.127832 0.589936
vt 0.130445 0.590798
vt 0.117386 0.625867
vt 0.114772 0.625004
vt 0.316351 0.796505
vt 0.157205 0.166482
vt 0.157205 0.166482
vt 0.316351 0.796505
vt 0.083687 0.575374
vt 0.107066 0.583086
vt 0.094007 0.618154
vt 0.070628 0.610442
vt 0.157205 0.166482
vt 0.157205 0.166482
vt 0.157205 0.166482
vt 0.157205 0.166482
vt 0.157205 0.166482
vt 0.157205 0.166482
vt 0.110409 0.584189
vt 0.094199 0.516909
vt 0.148986 0.212194
vt 0.147526 0.216115
vt 0.157205 0.166482
vt 0.105741 0.637039
vt 0.083007 0.546963
vt 0.176077 0.750232
vt 0.117386 0.625867
vt 0.176077 0.750232
vt 0.157205 0.166482
vt 0.166901 0.735466
vt 0.137847 0.265748
vt 0.157726 0.720701
vt 0.140767 0.257907
vt 0.125218 0.589074
vt 0.112158 0.624142
vt 0.097349 0.619257
vn 1.0000 0.0000 0.0000
vn 0.0000 0.7671 0.6415
vn 0.0000 -1.0000 0.0000
vn -0.6170 0.7870 -0.0000
vn -0.5154 0.6574 0.5497
vn -0.7174 -0.0371 0.6957
vn 0.0000 -0.2662 -0.9639
vn -1.0000 0.0000 0.0000
vn 0.0000 -0.2662 0.9639
vn 0.0000 1.0000 -0.0000
vn 0.0000 0.0000 1.0000
vn -0.0007 -0.7399 0.6727
vn 0.0000 -0.7682 0.6402
vn -0.9994 -0.0348 0.0000
vn -0.9998 -0.0175 0.0036
vn -0.6839 -0.7295 0.0000
vn -0.6839 -0.7295 0.0049
vn -0.5844 -0.6234 0.5195
vn 0.0000 -0.1900 0.9818
vn -0.9994 0.0341 0.0000
vn 0.0000 -0.1900 -0.9818
vn 0.9994 0.0341 0.0000
vn 0.9639 -0.2662 0.0000
vn -0.9639 -0.2662 0.0000
vn 0.0000 0.0341 0.9994
vn -0.0000 0.0341 -0.9994
vn 0.0000 0.0000 -1.0000
vn -0.9818 -0.1899 0.0000
vn 0.9818 -0.1899 0.0000
vn 0.6170 0.7870 -0.0000
vn 0.5154 0.6574 0.5497
vn 0.7174 -0.0371 0.6957
vn 0.0007 -0.7399 0.6727
vn 0.9994 -0.0348 0.0000
vn 0.9998 -0.0175 0.0036
vn 0.6839 -0.7295 0.0000
vn 0.6839 -0.7295 0.0049
vn 0.5844 -0.6234 0.5195
vn 0.9818 -0.1900 0.0000
vn 0.0000 0.7671 -0.6415
vn -0.5154 0.6574 -0.5497
vn -0.7174 -0.0371 -0.6957
vn -0.0007 -0.7399 -0.6727
vn 0.0000 -0.7682 -0.6402
vn -0.9998 -0.0175 -0.0036
vn -0.6839 -0.7295 -0.0049
vn -0.5844 -0.6234 -0.5195
vn -0.9818 -0.1900 0.0000
vn 0.5154 0.6574 -0.5497
vn 0.7174 -0.0371 -0.6957
vn 0.0007 -0.7399 -0.6727
vn 0.9998 -0.0175 -0.0036
vn 0.6839 -0.7295 -0.0049
vn 0.5844 -0.6234 -0.5195
usemtl Material.001
s off
f 31/1/1 3/2/1 4/3/1 28/4/1
f 5/5/2 2/6/2 15/7/2 12/8/2
f 7/9/3 8/10/3 6/11/3 1/12/3
f 76/13/3 115/14/3 42/15/3 3/2/3
f 3/2/3 42/15/3 39/16/3 4/3/3
f 75/17/4 88/18/4 17/19/4 9/20/4
f 16/21/5 15/7/5 2/6/5
f 18/22/6 14/23/6 15/7/6 16/21/6
f 3/2/3 11/24/3 79/25/3 76/13/3
f 24/26/7 8/10/7 7/9/7 26/27/7
f 29/28/8 30/29/8 10/30/8 11/24/8
f 25/31/9 27/32/9 1/12/9 6/11/9
f 9/20/10 2/6/10 5/5/10
f 116/33/10 9/20/10 5/5/10
f 5/5/10 40/34/10 116/33/10
f 9/20/10 116/33/10 75/17/10
f 51/35/11 46/36/11 12/8/11 13/37/11
f 13/37/11 12/8/11 15/7/11 14/23/11
f 40/34/2 5/5/2 12/8/2 46/36/2
f 4/3/12 39/16/12 51/38/12 13/39/12
f 10/30/13 4/40/13 13/37/13 14/23/13
f 17/19/14 19/41/14 18/22/14 16/21/14
f 17/19/15 88/18/15 91/42/15 19/41/15
f 10/30/16 18/22/16 19/41/16 11/24/16
f 9/20/4 17/19/4 16/21/4 2/6/4
f 11/24/17 19/41/17 91/42/17 79/25/17
f 14/23/18 18/22/18 10/30/18
f 28/43/19 30/29/19 23/44/19 21/45/19
f 26/27/20 27/32/20 23/44/20 22/46/20
f 31/1/21 20/47/21 22/46/21 29/28/21
f 24/26/22 20/47/22 21/48/22 25/49/22
f 8/10/23 24/26/23 25/49/23 6/11/23
f 7/9/24 1/12/24 27/32/24 26/27/24
f 21/45/25 23/44/25 27/32/25 25/31/25
f 20/47/26 24/26/26 26/27/26 22/46/26
f 3/2/27 31/1/27 29/28/27 11/24/27
f 4/40/11 10/30/11 30/29/11 28/43/11
f 22/46/28 23/44/28 30/29/28 29/28/28
f 20/47/29 31/1/29 28/4/29 21/48/29
f 67/50/8 64/51/8 35/52/8 34/53/8
f 36/54/2 47/55/2 50/56/2 33/57/2
f 38/58/3 32/59/3 37/60/3 41/61/3
f 114/62/3 34/53/3 42/15/3 115/14/3
f 34/53/3 35/52/3 39/16/3 42/15/3
f 113/63/30 43/64/30 53/65/30 131/66/30
f 52/67/31 33/57/31 50/56/31
f 54/68/32 52/67/32 50/56/32 49/69/32
f 34/53/3 114/62/3 120/70/3 45/71/3
f 60/72/7 62/73/7 38/58/7 41/61/7
f 65/74/1 45/71/1 44/75/1 66/76/1
f 61/77/9 37/60/9 32/59/9 63/78/9
f 43/64/10 36/54/10 33/57/10
f 116/33/10 36/54/10 43/64/10
f 36/54/10 116/33/10 40/34/10
f 43/64/10 113/63/10 116/33/10
f 51/35/11 48/79/11 47/55/11 46/36/11
f 48/79/11 49/69/11 50/56/11 47/55/11
f 40/34/2 46/36/2 47/55/2 36/54/2
f 35/52/33 48/80/33 51/38/33 39/16/33
f 44/75/13 49/69/13 48/79/13 35/81/13
f 53/65/34 52/67/34 54/68/34 55/82/34
f 53/65/35 55/82/35 134/83/35 131/66/35
f 44/75/36 45/71/36 55/82/36 54/68/36
f 43/64/30 33/57/30 52/67/30 53/65/30
f 45/71/37 120/70/37 134/83/37 55/82/37
f 49/69/38 44/75/38 54/68/38
f 64/84/19 57/85/19 59/86/19 66/76/19
f 62/73/22 58/87/22 59/86/22 63/78/22
f 67/50/21 65/74/21 58/87/21 56/88/21
f 60/72/20 61/89/20 57/90/20 56/88/20
f 41/61/24 37/60/24 61/89/24 60/72/24
f 38/58/23 62/73/23 63/78/23 32/59/23
f 57/85/25 61/77/25 63/78/25 59/86/25
f 56/88/26 58/87/26 62/73/26 60/72/26
f 34/53/27 45/71/27 65/74/27 67/50/27
f 35/81/11 64/84/11 66/76/11 44/75/11
f 58/87/39 65/74/39 66/76/39 59/86/39
f 56/88/28 57/90/28 64/51/28 67/50/28
f 103/91/1 100/92/1 71/93/1 70/94/1
f 72/95/40 82/96/40 85/97/40 69/98/40
f 74/99/3 68/100/3 73/101/3 77/102/3
f 76/13/3 70/94/3 118/103/3 115/14/3
f 70/94/3 71/93/3 111/104/3 118/103/3
f 75/17/4 78/105/4 87/106/4 88/18/4
f 86/107/41 69/98/41 85/97/41
f 89/108/42 86/107/42 85/97/42 84/109/42
f 70/94/3 76/13/3 79/25/3 81/110/3
f 96/111/9 98/112/9 74/99/9 77/102/9
f 101/113/8 81/110/8 80/114/8 102/115/8
f 97/116/7 73/101/7 68/100/7 99/117/7
f 78/105/10 72/95/10 69/98/10
f 116/33/10 72/95/10 78/105/10
f 72/95/10 116/33/10 112/118/10
f 78/105/10 75/17/10 116/33/10
f 128/119/27 83/120/27 82/96/27 123/121/27
f 83/120/27 84/109/27 85/97/27 82/96/27
f 112/118/40 123/121/40 82/96/40 72/95/40
f 71/93/43 83/122/43 128/123/43 111/104/43
f 80/114/44 84/109/44 83/120/44 71/124/44
f 87/106/14 86/107/14 89/108/14 90/125/14
f 87/106/45 90/125/45 91/42/45 88/18/45
f 80/114/16 81/110/16 90/125/16 89/108/16
f 78/105/4 69/98/4 86/107/4 87/106/4
f 81/110/46 79/25/46 91/42/46 90/125/46
f 84/109/47 80/114/47 89/108/47
f 100/126/21 93/127/21 95/128/21 102/115/21
f 98/112/20 94/129/20 95/128/20 99/117/20
f 103/91/19 101/113/19 94/129/19 92/130/19
f 96/111/22 97/131/22 93/132/22 92/130/22
f 77/102/23 73/101/23 97/131/23 96/111/23
f 74/99/24 98/112/24 99/117/24 68/100/24
f 93/127/26 97/116/26 99/117/26 95/128/26
f 92/130/25 94/129/25 98/112/25 96/111/25
f 70/94/11 81/110/11 101/113/11 103/91/11
f 71/124/27 100/126/27 102/115/27 80/114/27
f 94/129/48 101/113/48 102/115/48 95/128/48
f 92/130/29 93/132/29 100/92/29 103/91/29
f 146/133/8 106/134/8 107/135/8 143/136/8
f 108/137/40 105/138/40 127/139/40 124/140/40
f 110/141/3 117/142/3 109/143/3 104/144/3
f 114/62/3 115/14/3 118/103/3 106/134/3
f 106/134/3 118/103/3 111/104/3 107/135/3
f 113/63/30 131/66/30 130/145/30 119/146/30
f 129/147/49 127/139/49 105/138/49
f 132/148/50 126/149/50 127/139/50 129/147/50
f 106/134/3 122/150/3 120/70/3 114/62/3
f 139/151/9 117/142/9 110/141/9 141/152/9
f 144/153/1 145/154/1 121/155/1 122/150/1
f 140/156/7 142/157/7 104/144/7 109/143/7
f 119/146/10 105/138/10 108/137/10
f 116/33/10 119/146/10 108/137/10
f 108/137/10 112/118/10 116/33/10
f 119/146/10 116/33/10 113/63/10
f 128/119/27 123/121/27 124/140/27 125/158/27
f 125/158/27 124/140/27 127/139/27 126/149/27
f 112/118/40 108/137/40 124/140/40 123/121/40
f 107/135/51 111/104/51 128/123/51 125/159/51
f 121/155/44 107/160/44 125/158/44 126/149/44
f 130/145/34 133/161/34 132/148/34 129/147/34
f 130/145/52 131/66/52 134/83/52 133/161/52
f 121/155/36 132/148/36 133/161/36 122/150/36
f 119/146/30 130/145/30 129/147/30 105/138/30
f 122/150/53 133/161/53 134/83/53 120/70/53
f 126/149/54 132/148/54 121/155/54
f 143/162/21 145/154/21 138/163/21 136/164/21
f 141/152/22 142/157/22 138/163/22 137/165/22
f 146/133/19 135/166/19 137/165/19 144/153/19
f 139/151/20 135/166/20 136/167/20 140/168/20
f 117/142/24 139/151/24 140/168/24 109/143/24
f 110/141/23 104/144/23 142/157/23 141/152/23
f 136/164/26 138/163/26 142/157/26 140/156/26
f 135/166/25 139/151/25 141/152/25 137/165/25
f 106/134/11 146/133/11 144/153/11 122/150/11
f 107/160/27 121/155/27 145/154/27 143/162/27
f 137/165/29 138/163/29 145/154/29 144/153/29
f 135/166/28 146/133/28 143/136/28 136/167/28
