# Blender v2.90.1 OBJ File: 'Door.blend'
# www.blender.org
mtllib Door.mtl
o Door_Cube.003
v 0.573383 -0.986787 -0.058542
v 0.573383 1.000000 -0.058542
v -0.427107 0.012425 -0.058542
v -0.516513 0.012425 -0.058542
v -0.573383 1.000000 -0.008418
v -0.516513 0.137563 -0.058542
v -0.427107 0.138804 -0.058542
v 0.000000 1.035946 -0.058542
v 0.000000 -0.986787 -0.058542
v -0.573383 -0.986787 -0.058542
v -0.427107 0.138804 -0.112974
v -0.573383 1.000000 -0.058542
v -0.427107 0.012425 -0.112974
v -0.516513 0.137563 -0.112974
v -0.516513 0.012425 -0.112974
v 0.573383 -0.986787 0.058542
v 0.573383 1.000000 0.058542
v 0.573383 -0.986787 0.000000
v 0.573383 1.000000 0.000000
v 0.573383 1.000000 0.000000
v -0.427107 0.012425 0.058542
v -0.516513 0.012425 0.058542
v -0.573383 1.000000 0.008418
v -0.516513 0.137563 0.058542
v -0.427107 0.138804 0.058542
v 0.000000 -0.986787 0.000000
v -0.573383 -0.986787 0.000000
v -0.573383 1.000000 0.000000
v -0.573383 1.000000 0.000000
v 0.000000 1.035946 0.000000
v 0.000000 1.035946 0.058542
v 0.000000 -0.986787 0.058542
v -0.573383 -0.986787 0.058542
v -0.427107 0.138804 0.112974
v -0.573383 1.000000 0.058542
v -0.427107 0.012425 0.112974
v -0.516513 0.137563 0.112974
v -0.516513 0.012425 0.112974
vt 0.000000 0.000000
vt 0.000000 0.000000
vt 0.000000 0.000000
vt 0.000000 0.000000
vt 0.000000 0.000000
vt 0.000000 0.000000
vt 0.000000 0.000000
vt 0.000000 0.000000
vt 0.000000 0.000000
vt 0.000000 0.000000
vt 0.000000 0.000000
vt 0.000000 0.000000
vt 0.000000 0.000000
vt 0.000000 0.000000
vt 0.000000 0.000000
vt 0.000000 0.000000
vt 0.000000 0.000000
vt 0.000000 0.000000
vt 0.000000 0.000000
vt 0.000000 0.000000
vt 0.000000 0.000000
vt 0.000000 0.000000
vt 0.000000 0.000000
vt 0.000000 0.000000
vt 0.000000 0.000000
vt 0.000000 0.000000
vt 0.000000 0.000000
vt 0.000000 0.000000
vt 0.000000 0.000000
vt 0.000000 0.000000
vt 0.000000 0.000000
vt 0.000000 0.000000
vt 0.000000 0.000000
vt 0.000000 0.000000
vt 0.000000 0.000000
vt 0.000000 0.000000
vn 1.0000 0.0000 0.0000
vn 0.0626 0.9980 0.0000
vn 0.0000 -1.0000 0.0000
vn -0.0000 0.0000 -1.0000
vn -1.0000 0.0000 0.0000
vn -0.0626 0.9980 0.0000
vn -0.0139 0.9999 0.0000
vn -0.0000 0.0000 1.0000
usemtl None
s off
f 19/1/1 18/2/1 1/3/1 2/4/1
f 8/5/2 30/6/2 20/7/2 2/4/2
f 1/3/3 18/2/3 26/8/3 9/9/3
f 9/9/4 8/5/4 2/4/4 1/3/4
f 10/10/5 27/11/5 28/12/5 12/13/5
f 8/5/6 12/13/6 29/14/6 30/6/6
f 10/10/3 9/9/3 26/8/3 27/11/3
f 3/15/3 4/16/3 15/17/3 13/18/3
f 3/15/4 7/19/4 8/5/4 9/9/4
f 6/20/4 4/16/4 10/10/4 12/13/4
f 4/16/4 3/15/4 9/9/4 10/10/4
f 7/19/4 6/20/4 12/13/4 8/5/4
f 13/18/4 15/17/4 14/21/4 11/22/4
f 7/19/1 3/15/1 13/18/1 11/22/1
f 6/20/7 7/19/7 11/22/7 14/21/7
f 4/16/5 6/20/5 14/21/5 15/17/5
f 19/1/1 17/23/1 16/24/1 18/2/1
f 31/25/2 17/23/2 20/7/2 30/6/2
f 16/24/3 32/26/3 26/8/3 18/2/3
f 32/26/8 16/24/8 17/23/8 31/25/8
f 33/27/5 35/28/5 28/12/5 27/11/5
f 31/25/6 30/6/6 29/14/6 35/28/6
f 33/27/3 27/11/3 26/8/3 32/26/3
f 21/29/3 36/30/3 38/31/3 22/32/3
f 21/29/8 32/26/8 31/25/8 25/33/8
f 24/34/8 35/28/8 33/27/8 22/32/8
f 22/32/8 33/27/8 32/26/8 21/29/8
f 25/33/8 31/25/8 35/28/8 24/34/8
f 36/30/8 34/35/8 37/36/8 38/31/8
f 25/33/1 34/35/1 36/30/1 21/29/1
f 24/34/7 37/36/7 34/35/7 25/33/7
f 22/32/5 38/31/5 37/36/5 24/34/5
l 12 5
l 28 5
l 35 23
l 28 23
