# Blender v2.90.1 OBJ File: 'Rug.blend'
# www.blender.org
mtllib Rug.mtl
o Plane
v -3.887278 0.000000 6.542324
v 3.887278 0.000000 6.542324
v -3.887278 0.000000 -6.542324
v 3.887278 0.000000 -6.542324
v -3.887278 0.000000 -3.291786
v 3.887278 0.000000 -3.291786
v -0.420753 0.000000 -6.542324
v -3.887278 0.000000 -4.386552
v -1.547196 0.000000 -6.542324
v -2.473042 0.000000 -6.542324
v -3.887278 0.000000 -5.671943
v -2.473042 0.000000 -6.542324
v -3.887278 0.000000 -6.542324
v -3.887278 0.000000 -4.386552
v -3.887278 0.000000 -3.291786
v -0.420753 0.000000 -6.542324
v -3.887278 0.000000 -5.671943
v -1.547196 0.000000 -6.542324
vt 0.000000 0.000000
vt 1.000000 0.000000
vt 1.000000 0.751576
vt 0.000000 0.751576
vt 0.364008 1.000000
vt 1.000000 1.000000
vt 0.000000 0.751576
vt 0.000000 0.835244
vt 0.219119 1.000000
vt 0.364008 1.000000
vt 0.000000 0.933481
vt 0.100033 1.000000
vt 0.000000 1.000000
vt 0.000000 0.000000
vt 0.000000 0.000000
vt 0.000000 0.000000
vt 0.000000 0.000000
vt 0.000000 0.000000
vt 0.000000 0.000000
vt 0.000000 0.000000
vn 0.0000 1.0000 0.0000
vn 0.0000 -1.0000 0.0000
usemtl None
s off
f 1/1/1 2/2/1 6/3/1 5/4/1
f 7/5/1 5/4/1 6/3/1 4/6/1
f 15/7/2 14/8/2 18/9/2 16/10/2
f 14/8/2 17/11/2 12/12/2 18/9/2
f 17/11/2 13/13/2 12/12/2
f 8/14/1 5/15/1 7/16/1 9/17/1
f 11/18/1 8/14/1 9/17/1 10/19/1
f 10/19/1 3/20/1 11/18/1
