# Blender v2.90.1 OBJ File: 'FirstFloor.blend'
# www.blender.org
mtllib BackLounge.mtl
o BackLounge_Plane.009
v -3.500000 0.000000 -10.000000
v -3.500000 0.000000 -20.000000
v -15.000001 0.000000 -10.000000
v -15.000000 0.000000 -20.000000
v -3.500000 1.500000 -10.000000
v -3.500000 1.500000 -20.000000
v -15.000001 1.500000 -10.000000
v -15.000000 1.500000 -20.000000
v -5.426617 0.000000 -10.114428
v -5.426617 2.000002 -10.113867
v -5.345294 2.098234 -10.113867
v -5.315002 0.000000 -10.113867
v -6.573383 0.000000 -10.114428
v -6.573383 2.000002 -10.113867
v -6.000000 0.000000 -10.113867
v -6.000000 2.035947 -10.113867
v -6.000000 2.170763 -10.113867
v -6.654706 2.098234 -10.113867
v -6.684998 0.000000 -10.113867
v -5.426617 2.000002 -10.000000
v -5.315002 -0.000000 -10.000000
v -5.345294 2.098234 -10.000000
v -5.426617 0.013214 -10.000000
v -6.573383 2.000002 -10.000000
v -6.000000 2.035947 -10.000000
v -6.684998 -0.000000 -10.000000
v -6.654706 2.098234 -10.000000
v -6.000000 2.170763 -10.000000
v -6.573383 0.013214 -10.000000
v -6.000000 0.013214 -10.000000
v -5.392515 1.500000 -10.000000
v -6.620693 1.500000 -10.000000
v -15.000000 0.150000 -20.000000
v -15.000001 0.150000 -10.000000
v -3.500000 0.150000 -20.000000
v -3.500000 0.150000 -10.000000
v -5.326111 0.150000 -10.000000
v -6.675782 0.150000 -10.000000
v -14.950000 0.000000 -19.950001
v -3.550000 0.000000 -19.950001
v -14.950001 0.150000 -10.050000
v -14.950001 0.000000 -10.050000
v -3.550000 0.150000 -19.950001
v -3.550000 0.000000 -10.050000
v -6.684998 -0.000000 -10.050000
v -5.315002 -0.000000 -10.050000
v -14.950000 0.150000 -19.950001
v -3.550000 0.150000 -10.050000
v -5.326111 0.150000 -10.050000
v -6.675782 0.150000 -10.050000
vt 0.000000 0.000000
vt 0.000000 0.000000
vt 0.000000 0.000000
vt 0.000000 0.000000
vt 0.625000 0.500000
vt 0.750000 0.500000
vt 0.750000 0.625000
vt 0.625000 0.625000
vt 0.375000 0.500000
vt 0.375000 0.625000
vt 0.000000 0.000000
vt 0.000000 0.000000
vt 0.000000 0.000000
vt 0.000000 0.000000
vt 0.000000 0.000000
vt 0.000000 0.000000
vt 0.625000 0.500000
vt 0.625000 0.625000
vt 0.375000 0.500000
vt 0.375000 0.625000
vt 0.000000 0.000000
vt 0.000000 0.000000
vt 0.000000 0.000000
vt 0.000000 0.000000
vt 0.000000 0.000000
vt 0.000000 0.000000
vt 0.000000 0.000000
vt 0.000000 0.000000
vt 0.000000 0.000000
vt 0.000000 0.000000
vt 0.000000 0.000000
vt 0.000000 0.000000
vt 0.000000 0.000000
vt 0.000000 0.000000
vt 0.000000 0.000000
vt 0.000000 0.000000
vt 0.000000 0.000000
vt 0.000000 0.000000
vt 0.000000 0.000000
vt 0.000000 0.000000
vt 0.000000 0.000000
vt 0.000000 0.000000
vt 0.000000 0.000000
vt 0.000000 0.000000
vt 0.000000 0.000000
vt 0.000000 0.000000
vt 0.000000 0.000000
vt 0.000000 0.000000
vt 0.000000 0.000000
vt 0.000000 0.000000
vt 0.000000 0.000000
vt 0.000000 0.000000
vn -0.0626 -0.9980 0.0000
vn 0.1101 0.9939 0.0000
vn 0.9999 0.0144 0.0000
vn -0.0000 0.0000 -1.0000
vn -1.0000 -0.0000 0.0000
vn 0.0028 0.0002 -1.0000
vn -0.0001 0.9934 -0.1150
vn 0.0626 -0.9980 0.0000
vn -0.1101 0.9939 0.0000
vn -0.9999 0.0144 0.0000
vn 1.0000 -0.0000 0.0000
vn -0.0028 0.0002 -1.0000
vn 0.0001 0.9934 -0.1150
vn -0.0000 -1.0000 -0.0000
vn -0.9973 -0.0739 0.0000
vn 0.0000 1.0000 0.0000
vn 0.0000 0.0000 1.0000
vn 0.9981 -0.0613 0.0000
usemtl None
s off
f 25/1/1 16/2/1 10/3/1 20/4/1
f 11/5/2 17/6/2 28/7/2 22/8/2
f 12/9/3 11/5/3 22/8/3 21/10/3
f 17/6/4 11/5/4 10/3/4 16/2/4
f 23/11/5 20/4/5 10/3/5 9/12/5
f 11/5/6 12/9/6 9/12/6 10/3/6
f 30/13/7 23/11/7 9/12/7 15/14/7
f 25/1/8 24/15/8 14/16/8 16/2/8
f 18/17/9 27/18/9 28/7/9 17/6/9
f 19/19/10 26/20/10 27/18/10 18/17/10
f 17/6/4 16/2/4 14/16/4 18/17/4
f 29/21/11 13/22/11 14/16/11 24/15/11
f 18/17/12 14/16/12 13/22/12 19/19/12
f 30/13/13 15/14/13 13/22/13 29/21/13
f 26/23/14 3/24/14 42/25/14 45/26/14
f 36/27/5 5/28/5 6/29/5 35/30/5
f 21/31/15 37/32/15 49/33/15 46/34/15
f 3/24/14 4/35/14 39/36/14 42/25/14
f 2/37/16 4/35/16 3/24/16 1/38/16
f 33/39/16 34/40/16 41/41/16 47/42/16
f 6/29/17 8/43/17 33/39/17 35/30/17
f 8/43/11 7/44/11 34/40/11 33/39/11
f 32/45/4 38/46/4 34/40/4 7/44/4
f 37/32/16 36/27/16 48/47/16 49/33/16
f 5/28/4 36/27/4 37/32/4 31/48/4
f 48/47/4 44/49/4 46/34/4 49/33/4
f 50/50/4 45/26/4 42/25/4 41/41/4
f 47/42/11 41/41/11 42/25/11 39/36/11
f 43/51/17 47/42/17 39/36/17 40/52/17
f 44/49/5 48/47/5 43/51/5 40/52/5
f 34/40/16 38/46/16 50/50/16 41/41/16
f 4/35/14 2/37/14 40/52/14 39/36/14
f 38/46/18 26/23/18 45/26/18 50/50/18
f 1/38/14 21/31/14 46/34/14 44/49/14
f 36/27/16 35/30/16 43/51/16 48/47/16
f 2/37/14 1/38/14 44/49/14 40/52/14
f 35/30/16 33/39/16 47/42/16 43/51/16
