# Blender v2.90.1 OBJ File: 'FirstFloor.blend'
# www.blender.org
mtllib FrontLounge.mtl
o FrontLounge_Plane.010
v -3.500000 0.000000 0.000000
v -3.500000 0.000000 -10.000000
v -15.000000 0.000000 0.000000
v -15.000001 0.000000 -10.000000
v -3.500000 1.500000 0.000000
v -3.500000 1.500000 -10.000000
v -15.000000 1.500000 0.000000
v -15.000001 1.500000 -10.000000
v -3.614428 0.000000 -8.573382
v -3.613867 2.000002 -8.573382
v -3.613867 2.098234 -8.654706
v -3.613867 0.000000 -8.684998
v -3.614428 0.000000 -7.426617
v -3.613867 2.000002 -7.426617
v -3.613867 0.000000 -8.000000
v -3.613867 2.035947 -8.000000
v -3.613867 2.170763 -8.000000
v -3.613867 2.098234 -7.345294
v -3.613867 0.000000 -7.315002
v -3.550000 0.150000 -7.333167
v -3.550000 -0.000000 -7.315002
v -3.500000 2.000002 -8.573382
v -6.664304 0.150000 -9.950000
v -6.684998 -0.000000 -9.950000
v -3.500000 -0.000000 -8.684997
v -3.500000 2.098234 -8.654705
v -3.500000 0.013214 -8.573382
v -5.315002 -0.000000 -9.950000
v -3.550000 -0.000000 -8.684997
v -5.331437 0.150000 -9.950000
v -3.550000 0.150000 -8.673914
v -3.500000 2.000002 -7.426617
v -3.500000 2.035947 -8.000000
v -3.550000 0.150000 -9.950000
v -14.950000 0.000000 -0.050000
v -3.550000 0.000000 -0.050000
v -3.500000 -0.000000 -7.315002
v -3.500000 2.098234 -7.345294
v -3.500000 2.170763 -8.000000
v -3.500000 0.013214 -7.426617
v -3.500000 0.013214 -8.000000
v -3.550000 0.150000 -0.050000
v -14.950001 0.000000 -9.950000
v -14.950001 0.150000 -9.950000
v -5.331437 0.150000 -10.000000
v -3.500000 0.150000 -8.673914
v -3.500000 0.150000 -10.000000
v -6.664304 0.150000 -10.000000
v -3.500000 0.150000 -7.333167
v -3.500000 0.150000 0.000000
v -15.000000 0.150000 0.000000
v -15.000001 0.150000 -10.000000
v -5.426617 0.000000 -9.885572
v -5.426617 2.000002 -9.886133
v -5.426617 2.000002 -10.000000
v -5.345294 2.098234 -9.886133
v -5.315002 0.000000 -9.886133
v -5.315002 -0.000000 -10.000000
v -5.345294 2.098234 -10.000000
v -5.426617 0.013214 -10.000000
v -6.573383 0.000000 -9.885572
v -6.573383 2.000002 -9.886133
v -6.000000 0.000000 -9.886133
v -6.000000 2.035947 -9.886133
v -6.573383 2.000002 -10.000000
v -6.000000 2.035947 -10.000000
v -6.000000 2.170763 -9.886133
v -6.654706 2.098234 -9.886133
v -6.684998 0.000000 -9.886133
v -6.684998 -0.000000 -10.000000
v -6.654706 2.098234 -10.000000
v -6.000000 2.170763 -10.000000
v -6.573383 0.013214 -10.000000
v -6.000000 0.013214 -10.000000
v -3.500000 1.500000 -8.632724
v -3.500000 1.500000 -7.371447
v -5.392515 1.500000 -10.000000
v -6.620693 1.500000 -10.000000
v -3.550000 0.000000 -9.950000
v -14.950000 0.150000 -0.050000
vt 0.000000 0.000000
vt 0.000000 0.000000
vt 0.000000 0.000000
vt 0.000000 0.000000
vt 0.625000 0.500000
vt 0.750000 0.500000
vt 0.750000 0.625000
vt 0.625000 0.625000
vt 0.375000 0.500000
vt 0.375000 0.625000
vt 0.000000 0.000000
vt 0.000000 0.000000
vt 0.000000 0.000000
vt 0.000000 0.000000
vt 0.000000 0.000000
vt 0.000000 0.000000
vt 0.625000 0.500000
vt 0.625000 0.625000
vt 0.375000 0.500000
vt 0.375000 0.625000
vt 0.000000 0.000000
vt 0.000000 0.000000
vt 0.000000 0.000000
vt 0.000000 0.000000
vt 0.000000 0.000000
vt 0.000000 0.000000
vt 0.000000 0.000000
vt 0.000000 0.000000
vt 0.000000 0.000000
vt 0.000000 0.000000
vt 0.000000 0.000000
vt 0.000000 0.000000
vt 0.000000 0.000000
vt 0.000000 0.000000
vt 0.000000 0.000000
vt 0.000000 0.000000
vt 0.000000 0.000000
vt 0.000000 0.000000
vt 0.000000 0.000000
vt 0.000000 0.000000
vt 0.000000 0.000000
vt 0.000000 0.000000
vt 0.000000 0.000000
vt 0.000000 0.000000
vt 0.000000 0.000000
vt 0.000000 0.000000
vt 0.000000 0.000000
vt 0.000000 0.000000
vt 0.000000 0.000000
vt 0.000000 0.000000
vt 0.000000 0.000000
vt 0.000000 0.000000
vt 0.000000 0.000000
vt 0.000000 0.000000
vt 0.000000 0.000000
vt 0.000000 0.000000
vt 0.000000 0.000000
vt 0.000000 0.000000
vt 0.000000 0.000000
vt 0.000000 0.000000
vt 0.000000 0.000000
vt 0.000000 0.000000
vt 0.000000 0.000000
vt 0.000000 0.000000
vt 0.000000 0.000000
vt 0.625000 0.500000
vt 0.625000 0.625000
vt 0.750000 0.625000
vt 0.750000 0.500000
vt 0.375000 0.500000
vt 0.375000 0.625000
vt 0.000000 0.000000
vt 0.000000 0.000000
vt 0.000000 0.000000
vt 0.000000 0.000000
vt 0.000000 0.000000
vt 0.000000 0.000000
vt 0.625000 0.500000
vt 0.625000 0.625000
vt 0.375000 0.500000
vt 0.375000 0.625000
vt 0.000000 0.000000
vt 0.000000 0.000000
vt 0.000000 0.000000
vn 0.0000 -0.9980 0.0626
vn 0.0000 0.9939 -0.1101
vn -0.0000 0.0144 -0.9999
vn -1.0000 0.0000 0.0000
vn 0.0000 0.0000 1.0000
vn -1.0000 0.0002 -0.0028
vn -0.1150 0.9934 0.0001
vn 0.0000 -0.9980 -0.0626
vn 0.0000 0.9939 0.1101
vn 0.0000 0.0144 0.9999
vn 0.0000 0.0000 -1.0000
vn -1.0000 0.0002 0.0028
vn -0.1150 0.9934 -0.0001
vn 0.0000 1.0000 0.0000
vn -0.9941 -0.1089 0.0000
vn -0.0000 -1.0000 0.0000
vn 0.0000 -0.0737 0.9973
vn 1.0000 0.0000 -0.0000
vn -0.0626 -0.9980 0.0000
vn 0.1101 0.9939 0.0000
vn 0.9999 0.0144 -0.0000
vn 0.0028 0.0002 1.0000
vn -0.0001 0.9934 0.1150
vn 0.0626 -0.9980 0.0000
vn -0.1101 0.9939 0.0000
vn -0.9999 0.0144 -0.0000
vn -0.0028 0.0002 1.0000
vn 0.0001 0.9934 0.1150
vn 0.0000 -0.1202 -0.9927
vn 0.9906 -0.1367 0.0000
usemtl None
s off
f 33/1/1 16/2/1 10/3/1 22/4/1
f 11/5/2 17/6/2 39/7/2 26/8/2
f 12/9/3 11/5/3 26/8/3 25/10/3
f 17/6/4 11/5/4 10/3/4 16/2/4
f 27/11/5 22/4/5 10/3/5 9/12/5
f 11/5/6 12/9/6 9/12/6 10/3/6
f 41/13/7 27/11/7 9/12/7 15/14/7
f 33/1/8 32/15/8 14/16/8 16/2/8
f 18/17/9 38/18/9 39/7/9 17/6/9
f 19/19/10 37/20/10 38/18/10 18/17/10
f 17/6/4 16/2/4 14/16/4 18/17/4
f 40/21/11 13/22/11 14/16/11 32/15/11
f 18/17/12 14/16/12 13/22/12 19/19/12
f 41/13/13 15/14/13 13/22/13 40/21/13
f 48/23/14 52/24/14 44/25/14 23/26/14
f 45/27/15 58/28/15 28/29/15 30/30/15
f 50/31/14 49/32/14 20/33/14 42/34/14
f 4/35/16 70/36/16 24/37/16 43/38/16
f 46/39/14 47/40/14 34/41/14 31/42/14
f 47/40/14 45/27/14 30/30/14 34/41/14
f 25/43/17 46/39/17 31/42/17 29/44/17
f 58/28/16 2/45/16 79/46/16 28/29/16
f 2/45/16 25/43/16 29/44/16 79/46/16
f 34/41/4 79/46/4 29/44/4 31/42/4
f 6/47/4 47/40/4 46/39/4 75/48/4
f 6/47/5 77/49/5 45/27/5 47/40/5
f 1/50/16 3/51/16 35/52/16 36/53/16
f 34/41/5 30/30/5 28/29/5 79/46/5
f 20/33/4 21/54/4 36/53/4 42/34/4
f 23/26/5 44/25/5 43/38/5 24/37/5
f 7/55/11 5/56/11 50/31/11 51/57/11
f 76/58/4 49/32/4 50/31/4 5/56/4
f 3/51/14 1/50/14 2/45/14 4/35/14
f 80/59/11 42/34/11 36/53/11 35/52/11
f 8/60/18 7/55/18 51/57/18 52/24/18
f 44/25/18 80/59/18 35/52/18 43/38/18
f 78/61/5 8/60/5 52/24/5 48/23/5
f 66/62/19 55/63/19 54/64/19 64/65/19
f 56/66/20 59/67/20 72/68/20 67/69/20
f 57/70/21 58/71/21 59/67/21 56/66/21
f 67/69/5 64/65/5 54/64/5 56/66/5
f 60/72/4 53/73/4 54/64/4 55/63/4
f 56/66/22 54/64/22 53/73/22 57/70/22
f 74/74/23 63/75/23 53/73/23 60/72/23
f 66/62/24 64/65/24 62/76/24 65/77/24
f 68/78/25 67/69/25 72/68/25 71/79/25
f 69/80/26 68/78/26 71/79/26 70/81/26
f 67/69/5 68/78/5 62/76/5 64/65/5
f 73/82/18 65/77/18 62/76/18 61/83/18
f 68/78/27 69/80/27 61/83/27 62/76/27
f 74/74/28 73/82/28 61/83/28 63/75/28
f 49/32/29 37/84/29 21/54/29 20/33/29
f 3/51/16 4/35/16 43/38/16 35/52/16
f 70/36/30 48/23/30 23/26/30 24/37/30
f 52/24/14 51/57/14 80/59/14 44/25/14
f 51/57/14 50/31/14 42/34/14 80/59/14
f 37/84/16 1/50/16 36/53/16 21/54/16
