# Blender v2.90.1 OBJ File: 'FirstFloor.blend'
# www.blender.org
mtllib GraveYard.mtl
o GraveYard_Plane.007
v 3.500000 0.000000 -20.000021
v 14.162951 0.000000 -28.435970
v 14.162951 0.000000 -20.000000
v 3.500000 0.000000 -28.436001
v 3.500000 1.500000 -20.000021
v 14.162951 0.750000 -28.435970
v 14.162951 1.500000 -20.000000
v 3.500000 1.500000 -28.436001
v 11.573382 0.000000 -20.114428
v 11.573382 2.000002 -20.113867
v 11.654706 2.098234 -20.113867
v 11.684998 0.000000 -20.113867
v 10.426618 0.000000 -20.114428
v 10.426618 2.000002 -20.113867
v 11.000000 0.000000 -20.113867
v 11.000000 2.035947 -20.113867
v 11.000000 2.170763 -20.113867
v 10.345294 2.098234 -20.113867
v 10.315002 0.000000 -20.113867
v 11.573382 2.000002 -20.000000
v 11.684998 -0.000000 -20.000000
v 11.654706 2.098234 -20.000000
v 11.573382 0.013214 -20.000000
v 10.426618 2.000002 -20.000000
v 11.000000 2.035947 -20.000000
v 10.315002 -0.000000 -20.000000
v 10.345294 2.098234 -20.000000
v 11.000000 2.170763 -20.000000
v 10.426618 0.013214 -20.000000
v 11.000000 0.013214 -20.000000
v 10.383251 1.500000 -20.000021
v 11.614063 1.500000 -20.000000
v 3.500000 0.750000 -28.436001
v 14.162951 0.750000 -20.000000
v 3.500000 0.000000 -24.218010
v 14.162951 0.000000 -24.217985
v 8.831475 0.000000 -28.435986
v 8.831475 0.000000 -20.000011
v 8.759355 -0.107981 -24.172945
v 3.500000 0.000000 -26.327005
v 14.162951 0.000000 -22.108994
v 6.165738 0.000000 -28.435993
v 11.497213 0.000000 -20.000006
v 3.500000 0.000000 -22.109016
v 14.162951 0.000000 -26.326977
v 11.497213 0.000000 -28.435978
v 6.165738 0.000000 -20.000015
v 8.662238 -0.173613 -27.873146
v 8.497841 -0.012409 -21.147650
v 4.599397 0.011568 -23.763075
v 13.026438 -0.128199 -23.907806
v 13.643961 -0.099740 -20.322014
v 4.306345 0.104803 -20.470854
v 4.038020 -0.004746 -27.886971
v 13.030676 -0.097212 -27.622679
v 8.654490 -0.155820 -22.527451
v 11.041916 -0.012186 -23.939896
v 8.524565 -0.198522 -26.094053
v 6.472394 -0.132974 -24.097281
v 13.179182 -0.208309 -21.710526
v 11.483678 -0.034942 -21.046238
v 4.573251 0.058186 -22.424683
v 6.544399 -0.076815 -20.928404
v 4.462432 0.003411 -25.477154
v 6.493853 -0.162360 -27.532188
v 12.779280 -0.207045 -25.638103
v 10.597179 -0.062231 -27.620773
v 10.551534 0.028736 -25.998785
v 6.436896 -0.373911 -25.781906
v 10.773322 -0.149675 -22.759329
v 6.634299 -0.008892 -22.357035
vt 0.000000 0.000000
vt 0.000000 0.000000
vt 0.000000 0.000000
vt 0.000000 0.000000
vt 0.625000 0.500000
vt 0.750000 0.500000
vt 0.750000 0.625000
vt 0.625000 0.625000
vt 0.375000 0.500000
vt 0.375000 0.625000
vt 0.000000 0.000000
vt 0.000000 0.000000
vt 0.000000 0.000000
vt 0.000000 0.000000
vt 0.000000 0.000000
vt 0.000000 0.000000
vt 0.625000 0.500000
vt 0.625000 0.625000
vt 0.375000 0.500000
vt 0.375000 0.625000
vt 0.000000 0.000000
vt 0.000000 0.000000
vt 0.000000 0.000000
vt 0.000000 0.000000
vt 0.000000 0.000000
vt 0.000000 0.000000
vt 0.000000 0.000000
vt 0.000000 0.000000
vt 0.000000 0.000000
vt 0.000000 0.000000
vt 0.000000 0.000000
vt 0.000000 0.000000
vt 0.000000 0.000000
vt 0.000000 0.000000
vt 0.000000 0.000000
vt 0.000000 0.000000
vt 0.000000 0.000000
vt 0.000000 0.000000
vt 0.000000 0.000000
vt 0.000000 0.000000
vt 0.000000 0.000000
vt 0.000000 0.000000
vt 0.000000 0.000000
vt 0.000000 0.000000
vt 0.000000 0.000000
vt 0.000000 0.000000
vt 0.000000 0.000000
vt 0.000000 0.000000
vt 0.000000 0.000000
vt 0.000000 0.000000
vt 0.000000 0.000000
vt 0.000000 0.000000
vt 0.000000 0.000000
vt 0.000000 0.000000
vt 0.000000 0.000000
vt 0.000000 0.000000
vt 0.000000 0.000000
vt 0.000000 0.000000
vt 0.000000 0.000000
vt 0.000000 0.000000
vt 0.000000 0.000000
vt 0.000000 0.000000
vt 0.000000 0.000000
vt 0.000000 0.000000
vt 0.000000 0.000000
vt 0.000000 0.000000
vt 0.000000 0.000000
vt 0.000000 0.000000
vt 0.000000 0.000000
vt 0.000000 0.000000
vt 0.000000 0.000000
vt 0.000000 0.000000
vt 0.000000 0.000000
vn -0.0626 -0.9980 0.0000
vn 0.1101 0.9939 0.0000
vn 0.9999 0.0144 0.0000
vn 0.0000 0.0000 -1.0000
vn -1.0000 0.0000 0.0000
vn 0.0028 0.0002 -1.0000
vn -0.0001 0.9934 -0.1150
vn 0.0626 -0.9980 0.0000
vn -0.1101 0.9939 0.0000
vn -0.9999 0.0144 0.0000
vn 1.0000 0.0000 0.0000
vn -0.0029 0.0002 -1.0000
vn 0.0001 0.9934 -0.1150
vn -0.0000 0.0000 1.0000
vn -0.0449 0.9974 0.0567
vn 0.0260 0.9795 0.1999
vn 0.0270 0.9994 -0.0230
vn -0.1644 0.9863 0.0161
vn 0.0237 0.9976 0.0651
vn 0.0143 0.9996 -0.0254
vn -0.1061 0.9853 -0.1341
vn -0.0426 0.9989 -0.0203
vn -0.0742 0.9928 0.0938
vn 0.0085 0.9989 -0.0464
vn 0.0039 1.0000 0.0049
vn -0.0042 1.0000 -0.0024
vn -0.0285 0.9975 0.0653
vn -0.0146 0.9921 0.1249
vn 0.0572 0.9983 0.0099
vn -0.1339 0.9910 0.0055
vn -0.0831 0.9963 -0.0238
vn -0.0748 0.9972 0.0012
vn 0.0857 0.9960 -0.0266
vn 0.1194 0.9921 0.0380
vn 0.1212 0.9895 -0.0787
vn -0.0533 0.9947 -0.0875
vn -0.0231 0.9978 0.0624
vn 0.0011 0.9965 -0.0834
vn 0.0640 0.9933 -0.0958
vn 0.0497 0.9971 -0.0575
vn 0.0589 0.9982 0.0125
vn 0.0183 0.9995 -0.0253
usemtl None
s off
f 25/1/1 16/2/1 10/3/1 20/4/1
f 11/5/2 17/6/2 28/7/2 22/8/2
f 12/9/3 11/5/3 22/8/3 21/10/3
f 17/6/4 11/5/4 10/3/4 16/2/4
f 23/11/5 20/4/5 10/3/5 9/12/5
f 11/5/6 12/9/6 9/12/6 10/3/6
f 30/13/7 23/11/7 9/12/7 15/14/7
f 25/1/8 24/15/8 14/16/8 16/2/8
f 18/17/9 27/18/9 28/7/9 17/6/9
f 19/19/10 26/20/10 27/18/10 18/17/10
f 17/6/4 16/2/4 14/16/4 18/17/4
f 29/21/11 13/22/11 14/16/11 24/15/11
f 18/17/12 14/16/12 13/22/12 19/19/12
f 30/13/13 15/14/13 13/22/13 29/21/13
f 8/23/11 5/24/11 1/25/11 44/26/11 35/27/11 40/28/11 4/29/11 33/30/11
f 33/30/14 4/29/14 42/31/14 37/32/14 46/33/14 2/34/14 6/35/14
f 34/36/5 6/35/5 2/34/5 45/37/5 36/38/5 41/39/5 3/40/5
f 3/40/4 21/41/4 32/42/4 7/43/4 34/36/4
f 31/44/4 26/45/4 1/25/4 5/24/4
f 55/46/15 45/37/15 2/34/15 46/33/15
f 54/47/16 65/48/16 48/49/16 37/32/16 42/31/16
f 71/50/17 56/51/17 39/52/17 59/53/17
f 52/54/18 41/39/18 36/38/18 51/55/18 60/56/18
f 70/57/19 60/56/19 51/55/19 57/58/19
f 38/59/20 43/60/20 52/54/20 61/61/20 49/62/20
f 43/60/21 3/40/21 41/39/21 52/54/21
f 44/26/22 53/63/22 62/64/22 50/65/22 35/27/22
f 1/25/23 47/66/23 53/63/23 44/26/23
f 47/66/24 38/59/24 49/62/24 63/67/24 53/63/24
f 40/28/25 54/47/25 42/31/25 4/29/25
f 35/27/26 50/65/26 64/68/26 54/47/26 40/28/26
f 69/69/27 58/70/27 48/49/27 65/48/27
f 48/49/28 67/71/28 55/46/28 46/33/28 37/32/28
f 68/72/29 66/73/29 55/46/29 67/71/29
f 51/55/30 36/38/30 45/37/30 55/46/30 66/73/30
f 58/70/31 68/72/31 67/71/31 48/49/31
f 39/52/32 57/58/32 68/72/32 58/70/32
f 57/58/33 51/55/33 66/73/33 68/72/33
f 64/68/34 69/69/34 65/48/34 54/47/34
f 50/65/35 59/53/35 69/69/35 64/68/35
f 59/53/36 39/52/36 58/70/36 69/69/36
f 56/51/37 70/57/37 57/58/37 39/52/37
f 49/62/38 61/61/38 70/57/38 56/51/38
f 61/61/39 52/54/39 60/56/39 70/57/39
f 62/64/40 71/50/40 59/53/40 50/65/40
f 53/63/41 63/67/41 71/50/41 62/64/41
f 63/67/42 49/62/42 56/51/42 71/50/42
