# Blender v2.90.1 OBJ File: 'FirstFloor.blend'
# www.blender.org
mtllib Hall.mtl
o Hall_Plane.013
v 0.573383 0.497764 -0.114428
v 0.573383 2.497766 -0.113867
v 0.654706 2.595998 -0.113867
v 0.684998 0.497764 -0.113867
v -0.573383 0.497764 -0.114428
v -0.573383 2.497766 -0.113867
v 0.000000 0.497764 -0.113867
v 0.000000 2.533711 -0.113867
v 0.000000 2.668530 -0.113867
v -0.654706 2.595998 -0.113867
v -0.684998 0.497764 -0.113867
v 0.573383 2.497766 0.000000
v 0.684998 0.497764 0.000000
v 0.654706 2.595998 0.000000
v 0.573383 0.510978 0.000000
v -0.573383 2.497766 0.000000
v 0.000000 2.533711 0.000000
v -0.684998 0.497764 0.000000
v -0.654706 2.595998 0.000000
v 0.000000 2.668530 0.000000
v -0.573383 0.510978 0.000000
v 0.000000 0.510978 0.000000
v -0.664354 0.647764 0.000000
v 0.667492 0.647764 -0.000006
v -0.684998 0.497764 -0.050000
v 0.684998 0.497764 -0.050000
v 0.667492 0.647764 -0.050006
v -0.664354 0.647764 -0.050000
v -3.500000 0.000000 0.000000
v 3.500000 0.000000 -0.000021
v -3.500000 -0.000000 -8.684997
v 3.500000 -0.000000 -8.684998
v -3.500000 0.000000 -20.000000
v 3.500000 0.000000 -20.000021
v -3.500000 1.500000 0.000000
v 3.500000 1.500000 -0.000021
v -3.500000 1.500000 -8.632724
v 3.500000 1.500000 -8.608090
v -3.500000 1.500000 -20.000000
v 3.500000 1.500000 -20.000021
v 0.684998 -0.000000 0.000000
v -0.684998 -0.000000 0.000000
v -3.385572 0.000000 -8.573382
v -3.386133 2.000002 -8.573382
v -3.500000 2.000002 -8.573382
v -3.386133 2.098234 -8.654706
v -3.386133 0.000000 -8.684998
v -3.500000 0.150000 -8.672847
v -3.500000 2.098234 -8.654705
v -3.500000 0.013214 -8.573382
v -3.385572 0.000000 -7.426617
v -3.386133 2.000002 -7.426617
v -3.386133 0.000000 -8.000000
v -3.386133 2.035947 -8.000000
v -3.500000 2.000002 -7.426617
v -3.500000 2.035947 -8.000000
v -3.386133 2.170763 -8.000000
v -3.386133 2.098234 -7.345294
v -3.386133 0.000000 -7.315002
v -3.500000 -0.000000 -7.315002
v -3.500000 2.098234 -7.345294
v -3.500000 2.170763 -8.000000
v -3.500000 0.013214 -7.426617
v -3.500000 0.013214 -8.000000
v 3.385572 0.000000 -8.573382
v 3.386133 2.000002 -8.573382
v 3.386133 2.098234 -8.654706
v 3.386133 0.000000 -8.684998
v 3.385572 0.000000 -7.426617
v 3.386133 2.000002 -7.426617
v 3.386133 0.000000 -8.000000
v 3.386133 2.035947 -8.000000
v 3.386133 2.170763 -8.000000
v 3.386133 2.098234 -7.345294
v 3.386133 0.000000 -7.315002
v 3.500000 2.000002 -8.573382
v -3.500000 0.150000 0.000000
v 3.500000 2.098234 -8.654706
v 3.500000 0.013214 -8.573382
v 3.500000 2.000002 -7.426617
v 3.500000 2.035947 -8.000000
v 3.500000 -0.000000 -7.315002
v 3.500000 2.098234 -7.345294
v 3.500000 2.170763 -8.000000
v 3.500000 0.013214 -7.426617
v 3.500000 0.013214 -8.000000
v 3.385572 0.000000 -15.573382
v 3.386133 2.000002 -15.573382
v 3.386133 2.098234 -15.654706
v 3.386133 0.000000 -15.684998
v 3.385572 0.000000 -14.426618
v 3.386133 2.000002 -14.426618
v 3.386133 0.000000 -15.000000
v 3.386133 2.035947 -15.000000
v 3.386133 2.170763 -15.000000
v 3.386133 2.098234 -14.345294
v 3.386133 0.000000 -14.315002
v 3.500000 2.000002 -15.573382
v 3.500000 -0.000000 -15.684998
v 3.500000 2.098234 -15.654706
v 3.500000 0.013214 -15.573382
v 3.500000 2.000002 -14.426618
v 3.500000 2.035947 -15.000000
v 3.500000 -0.000000 -14.315002
v 3.500000 2.098234 -14.345294
v 3.500000 2.170763 -15.000000
v 3.500000 0.013214 -14.426618
v 3.500000 0.013214 -15.000000
v 2.073383 0.000000 -19.885572
v 2.073383 2.000002 -19.886133
v 2.073383 2.000002 -20.000000
v 2.154706 2.098234 -19.886133
v 2.184998 0.000000 -19.886133
v 2.184998 -0.000000 -20.000000
v 2.154706 2.098234 -20.000000
v 2.073383 0.013214 -20.000000
v 0.926617 0.000000 -19.885572
v 0.926617 2.000002 -19.886133
v 1.500000 0.000000 -19.886133
v 1.500000 2.035947 -19.886133
v 0.926617 2.000002 -20.000000
v 1.500000 2.035947 -20.000000
v 1.500000 2.170763 -19.886133
v 0.845294 2.098234 -19.886133
v 0.815002 0.000000 -19.886133
v 0.815002 -0.000000 -20.000000
v 0.845294 2.098234 -20.000000
v 1.500000 2.170763 -20.000000
v 0.926617 0.013214 -20.000000
v 1.500000 0.013214 -20.000000
v -3.500000 0.150000 -20.000000
v -3.500000 1.500000 -7.371447
v 0.866928 1.500000 -20.000000
v 2.139791 1.500000 -20.000021
v 0.827072 0.150000 -20.000000
v 3.500000 1.500000 -7.370293
v 0.619091 1.500000 -0.000021
v -0.623791 1.500000 0.000000
v 3.500000 1.500000 -15.626287
v 3.500000 1.500000 -14.379688
v -3.500000 0.150000 -7.334040
v -0.664354 0.150000 0.000000
v 3.500000 0.150000 -0.000021
v 3.500000 0.150000 -7.329688
v 0.667492 0.150000 -0.000006
v 3.500000 0.150000 -20.000021
v 2.172852 0.150000 -20.000006
v 3.500000 0.150000 -15.669224
v 3.500000 0.150000 -8.666368
v 3.500000 0.150000 -14.330670
v 3.450000 0.150000 -19.950022
v 3.450000 0.000000 -19.950022
v -3.450000 0.150000 -0.050000
v -3.450000 0.000000 -0.050000
v 3.450000 0.150000 -0.050021
v 3.450000 0.000000 -0.050021
v -3.450000 0.150000 -19.950001
v -3.450000 0.000000 -19.950001
v -3.450000 -0.000000 -8.684997
v -3.450000 0.150000 -8.672847
v 0.827072 0.150000 -19.950001
v 0.815002 -0.000000 -19.950001
v -3.450000 -0.000000 -7.315002
v -0.684998 -0.000000 -0.050000
v 0.684998 -0.000000 -0.050000
v 3.450000 -0.000000 -7.315002
v 3.450000 -0.000000 -8.684998
v 3.450000 -0.000000 -14.315002
v 3.450000 -0.000000 -15.684998
v 2.184998 -0.000000 -19.950001
v 0.667492 0.150000 -0.050006
v -3.450000 0.150000 -7.334040
v -0.664354 0.150000 -0.050000
v 3.450000 0.150000 -7.329688
v 2.172852 0.150000 -19.950006
v 3.450000 0.150000 -15.669224
v 3.450000 0.150000 -8.666368
v 3.450000 0.150000 -14.330670
v 0.573383 0.497764 -0.114428
v 0.684998 0.497764 -0.113867
v -0.573383 0.497764 -0.114428
v 0.000000 0.497764 -0.113867
v -0.684998 0.497764 -0.113867
v 0.684998 0.497764 0.000000
v -0.684998 0.497764 0.000000
v 1.190085 0.500508 -1.313698
v 1.462491 0.500075 -0.750699
v -1.190085 0.500508 -1.313698
v 0.000000 0.511841 -1.019275
v -1.462491 0.500075 -0.750699
v 1.468844 0.500106 0.000000
v -1.468844 0.500106 0.000000
v 1.462491 -0.000155 -0.750699
v -1.462491 -0.000155 -0.750699
v 1.468844 -0.000124 0.000000
v -1.468844 -0.000124 0.000000
v 0.000000 0.000000 -2.366292
v -1.125681 0.000000 -2.331070
v 1.125681 0.000000 -2.331070
vt 0.460127 0.056917
vt 0.460159 0.056482
vt 0.461049 0.057047
vt 0.460861 0.057269
vt 0.461177 0.056799
vt 0.460187 0.056082
vt 0.460217 0.055676
vt 0.461352 0.056512
vt 0.461141 0.063036
vt 0.461352 0.063036
vt 0.460824 0.062665
vt 0.460965 0.063036
vt 0.459818 0.062692
vt 0.459783 0.063221
vt 0.459388 0.056819
vt 0.459228 0.056511
vt 0.459129 0.056206
vt 0.458988 0.055827
vt 0.458561 0.062351
vt 0.458359 0.062268
vt 0.458911 0.062160
vt 0.458741 0.062433
vt 0.461444 0.055676
vt 0.461444 0.056132
vt 0.461369 0.056132
vt 0.461369 0.055676
vt 0.461369 0.056148
vt 0.461597 0.056148
vt 0.461597 0.056299
vt 0.461369 0.056299
vt 0.469392 0.044973
vt 0.469424 0.046620
vt 0.469253 0.046738
vt 0.469227 0.044973
vt 0.469094 0.046775
vt 0.468925 0.046889
vt 0.468904 0.044973
vt 0.469069 0.044973
vt 0.471057 0.051829
vt 0.470877 0.052103
vt 0.471269 0.051457
vt 0.471166 0.051657
vt 0.469253 0.043208
vt 0.469424 0.043326
vt 0.469094 0.043171
vt 0.468925 0.043057
vt 0.471057 0.038117
vt 0.470877 0.037843
vt 0.471269 0.038489
vt 0.471166 0.038289
vt 0.467011 0.044973
vt 0.466846 0.044973
vt 0.466872 0.043208
vt 0.467042 0.043326
vt 0.466713 0.043171
vt 0.466688 0.044973
vt 0.466523 0.044973
vt 0.466544 0.043057
vt 0.468676 0.038117
vt 0.468496 0.037843
vt 0.468888 0.038489
vt 0.468785 0.038289
vt 0.467042 0.046620
vt 0.466872 0.046738
vt 0.466713 0.046775
vt 0.466544 0.046889
vt 0.468676 0.051829
vt 0.468496 0.052103
vt 0.468888 0.051457
vt 0.468785 0.051657
vt 0.464630 0.044973
vt 0.464465 0.044973
vt 0.464491 0.043208
vt 0.464661 0.043326
vt 0.464332 0.043171
vt 0.464307 0.044973
vt 0.464142 0.044973
vt 0.464163 0.043057
vt 0.466295 0.038117
vt 0.466115 0.037843
vt 0.466507 0.038489
vt 0.466404 0.038289
vt 0.464661 0.046620
vt 0.464491 0.046738
vt 0.464332 0.046775
vt 0.464163 0.046889
vt 0.466295 0.051829
vt 0.466115 0.052103
vt 0.466507 0.051457
vt 0.466404 0.051657
vt 0.464630 0.059250
vt 0.464661 0.060897
vt 0.464491 0.061015
vt 0.464465 0.059250
vt 0.464332 0.061052
vt 0.464163 0.061166
vt 0.464142 0.059250
vt 0.464307 0.059250
vt 0.466295 0.066106
vt 0.466115 0.066380
vt 0.466507 0.065734
vt 0.466404 0.065934
vt 0.464491 0.057485
vt 0.464661 0.057603
vt 0.464332 0.057448
vt 0.464163 0.057334
vt 0.466295 0.052394
vt 0.466115 0.052120
vt 0.466507 0.052766
vt 0.466404 0.052566
vt 0.453376 0.038897
vt 0.453623 0.038701
vt 0.453651 0.038896
vt 0.453449 0.039009
vt 1.818883 0.060371
vt 4.341270 0.060371
vt 4.324073 0.060371
vt 1.818883 0.060371
vt 1.360656 0.060371
vt -0.587459 0.060371
vt -0.587459 0.060371
vt 1.360656 0.060371
vt -1.301624 0.058384
vt 0.132205 0.058384
vt 0.132205 0.058384
vt -1.276342 0.058384
vt 0.463696 0.038348
vt 0.464049 0.037843
vt 0.464126 0.038121
vt 0.463856 0.038454
vt 1.380700 0.524675
vt -0.604318 0.524675
vt 0.906489 0.529388
vt -1.301624 0.529388
vt -1.301624 0.058382
vt 0.886336 0.058382
vt 1.372228 0.524675
vt 1.358429 0.060371
vt -2.537305 0.060371
vt -2.537305 0.524675
vt -1.301624 0.529389
vt 0.152715 0.529389
vt 1.806017 0.524675
vt 4.341270 0.524675
vt 0.781172 0.529389
vt 2.237888 0.529389
vt 2.237888 0.058384
vt 0.805646 0.058384
vt 1.806414 0.524675
vt 1.820379 0.060371
vt 4.341262 0.060371
vt 4.341262 0.524675
vt -2.537312 0.524675
vt -2.537312 0.060371
vt -1.047827 0.060371
vt -1.033059 0.524675
vt 1.550106 0.529388
vt 1.566823 0.058382
vt 2.237888 0.058382
vt 2.237888 0.529388
vt 1.358429 0.060371
vt 1.354250 0.008782
vt -2.520109 0.008782
vt -2.520109 0.060371
vt 4.324073 0.008782
vt 1.825430 0.008782
vt 1.566823 0.058382
vt 1.572964 0.006049
vt 2.212606 0.006049
vt 2.212606 0.058382
vt 0.886336 0.058382
vt -1.276342 0.058382
vt -1.276342 0.006049
vt 0.880233 0.006049
vt 1.820379 0.060371
vt 1.825430 0.008782
vt 4.324065 0.008782
vt 4.324065 0.060371
vt 0.121767 0.006050
vt -1.276342 0.006050
vt 0.805646 0.058384
vt 2.212606 0.058384
vt 2.212606 0.006050
vt 0.814497 0.006050
vt -2.520116 0.060371
vt -2.520116 0.008782
vt -1.053252 0.008782
vt -1.047827 0.060371
vt 1.354250 0.008782
vt -0.582070 0.008782
vt 0.461449 0.039597
vt 0.461696 0.039555
vt 0.461697 0.039752
vt 0.461488 0.039725
vt 0.461669 0.055050
vt 0.461442 0.054879
vt 0.461508 0.054763
vt 0.461697 0.054900
vt 0.448951 0.080320
vt 0.448618 0.080261
vt 0.448684 0.080057
vt 0.448961 0.080099
vt 0.458318 0.067222
vt 0.458061 0.067076
vt 0.458143 0.066934
vt 0.458342 0.067052
vt 0.448610 0.038910
vt 0.448925 0.038667
vt 0.448961 0.038915
vt 0.448703 0.039056
vt 0.464054 0.055302
vt 0.463683 0.054869
vt 0.463817 0.054706
vt 0.464126 0.055056
vt 0.460965 0.063043
vt 0.459780 0.063258
vt 0.461352 0.063043
vt 0.461141 0.063042
vt 0.458740 0.062440
vt 0.458560 0.062357
vt 0.458358 0.062275
vt 0.484342 0.068178
vt 0.484267 0.067771
vt 0.486766 0.068111
vt 0.486479 0.068337
vt 0.482463 0.068694
vt 0.482108 0.068532
vt 0.478264 0.073298
vt 0.476385 0.073813
vt 0.476030 0.073652
vt 0.478188 0.072890
vt 0.480688 0.073231
vt 0.480400 0.073457
vt 0.478264 0.068178
vt 0.476385 0.068694
vt 0.476030 0.068532
vt 0.478188 0.067771
vt 0.480688 0.068111
vt 0.480400 0.068337
vt 0.484342 0.073298
vt 0.484267 0.072890
vt 0.486766 0.073231
vt 0.486479 0.073457
vt 0.482463 0.073813
vt 0.482108 0.073652
vt 4.341270 0.008782
vt 1.825430 0.008782
vt -0.602386 4.442395
vt -0.602386 -3.442403
vt 0.777455 -3.442395
vt 0.777455 4.442404
vt 1.354250 0.008782
vt -2.537305 0.008782
vt 0.121767 0.006050
vt -1.301624 0.006050
vt 2.237888 0.006050
vt 0.814497 0.006050
vt 1.825430 0.008782
vt 4.341262 0.008782
vt -0.582070 0.008782
vt 1.354250 0.008782
vt -2.537312 0.008782
vt -1.053252 0.008782
vt 1.572964 0.006049
vt 2.237888 0.006049
vt -1.301624 0.006049
vt 0.880233 0.006049
vt 0.294659 0.124593
vt 0.500000 0.124392
vt 0.500000 0.448638
vt 0.073805 0.554077
vt 0.254687 0.083613
vt 0.254687 0.124392
vt -0.023750 0.352455
vt -0.026025 0.083613
vt 0.705341 0.124593
vt 0.745312 0.124392
vt 1.023749 0.352455
vt 0.926195 0.554077
vt 0.745312 0.083613
vt 1.026024 0.083613
vt -0.023750 0.352455
vt -0.026025 0.083613
vt 1.023749 0.352455
vt 0.903131 0.918420
vt 0.500000 0.931034
vt 0.096869 0.918420
vt 1.026024 0.083613
vn -0.0626 -0.9980 0.0000
vn 0.1101 0.9939 0.0000
vn 0.9999 0.0144 0.0000
vn 0.0000 0.0000 -1.0000
vn -1.0000 -0.0000 0.0000
vn 0.0028 0.0002 -1.0000
vn -0.0001 0.9934 -0.1150
vn 0.0626 -0.9980 0.0000
vn -0.1101 0.9939 0.0000
vn -0.9999 0.0144 0.0000
vn 1.0000 0.0000 0.0000
vn -0.0028 0.0002 -1.0000
vn 0.0001 0.9934 -0.1150
vn -0.9933 -0.1159 0.0000
vn 0.9907 -0.1363 0.0000
vn 0.0000 -0.9980 0.0626
vn 0.0000 0.9939 -0.1101
vn 0.0000 0.0144 -0.9999
vn 0.0000 0.0000 1.0000
vn 1.0000 0.0002 -0.0028
vn 0.0000 -0.9980 -0.0626
vn 0.0000 0.9939 0.1101
vn -0.0000 0.0144 0.9999
vn 1.0000 0.0002 0.0028
vn -1.0000 0.0002 -0.0028
vn -1.0000 0.0002 0.0028
vn 0.0028 0.0002 1.0000
vn -0.0028 0.0002 1.0000
vn 0.0000 -0.0974 -0.9952
vn -0.0000 1.0000 -0.0000
vn 0.0000 -0.1039 -0.9946
vn -0.9967 -0.0807 0.0000
vn 0.0000 -0.1046 0.9945
vn 0.9968 -0.0802 0.0000
vn 0.0000 -0.1259 -0.9920
vn 0.0000 -0.0807 0.9967
vn 0.0000 -0.1232 0.9924
vn 0.1150 0.9934 0.0001
vn 0.1150 0.9934 -0.0001
vn -0.1150 0.9934 0.0001
vn -0.1150 0.9934 -0.0001
vn -0.0001 0.9934 0.1150
vn 0.0001 0.9934 0.1150
vn 0.0000 -1.0000 0.0000
vn -0.0082 0.9999 0.0104
vn 0.0030 1.0000 -0.0000
vn -0.0014 1.0000 0.0017
vn 0.0014 1.0000 0.0017
vn 0.0082 0.9999 0.0104
vn -0.0030 1.0000 -0.0000
vn -1.0000 0.0000 -0.0085
vn 0.9402 0.2111 -0.2672
vn 0.0394 0.9190 -0.3924
vn 1.0000 0.0000 -0.0085
vn -0.9402 0.2111 -0.2672
vn -0.0394 0.9190 -0.3924
usemtl Wall
s off
f 17/1/1 8/2/1 2/3/1 12/4/1
f 3/5/2 9/6/2 20/7/2 14/8/2
f 4/9/3 3/5/3 14/8/3 13/10/3
f 9/6/4 3/5/4 2/3/4 8/2/4
f 15/11/5 12/4/5 2/3/5 1/12/5
f 3/5/6 4/9/6 1/12/6 2/3/6
f 22/13/7 15/11/7 1/12/7 7/14/7
f 17/1/8 16/15/8 6/16/8 8/2/8
f 10/17/9 19/18/9 20/7/9 9/6/9
f 11/19/10 18/20/10 19/18/10 10/17/10
f 9/6/4 8/2/4 6/16/4 10/17/4
f 21/21/11 5/22/11 6/16/11 16/15/11
f 10/17/12 6/16/12 5/22/12 11/19/12
f 22/13/13 7/14/13 5/22/13 21/21/13
f 13/23/14 24/24/14 27/25/14 26/26/14
f 23/27/15 18/28/15 25/29/15 28/30/15
f 56/31/16 45/32/16 44/33/16 54/34/16
f 46/35/17 49/36/17 62/37/17 57/38/17
f 47/39/18 31/40/18 49/36/18 46/35/18
f 57/38/11 54/34/11 44/33/11 46/35/11
f 50/41/19 43/42/19 44/33/19 45/32/19
f 46/35/20 44/33/20 43/42/20 47/39/20
f 56/31/21 54/34/21 52/43/21 55/44/21
f 58/45/22 57/38/22 62/37/22 61/46/22
f 59/47/23 58/45/23 61/46/23 60/48/23
f 57/38/11 58/45/11 52/43/11 54/34/11
f 63/49/4 55/44/4 52/43/4 51/50/4
f 58/45/24 59/47/24 51/50/24 52/43/24
f 81/51/16 72/52/16 66/53/16 76/54/16
f 67/55/17 73/56/17 84/57/17 78/58/17
f 68/59/18 67/55/18 78/58/18 32/60/18
f 73/56/5 67/55/5 66/53/5 72/52/5
f 79/61/19 76/54/19 66/53/19 65/62/19
f 67/55/25 68/59/25 65/62/25 66/53/25
f 81/51/21 80/63/21 70/64/21 72/52/21
f 74/65/22 83/66/22 84/57/22 73/56/22
f 75/67/23 82/68/23 83/66/23 74/65/23
f 73/56/5 72/52/5 70/64/5 74/65/5
f 85/69/4 69/70/4 70/64/4 80/63/4
f 74/65/26 70/64/26 69/70/26 75/67/26
f 103/71/16 94/72/16 88/73/16 98/74/16
f 89/75/17 95/76/17 106/77/17 100/78/17
f 90/79/18 89/75/18 100/78/18 99/80/18
f 95/76/5 89/75/5 88/73/5 94/72/5
f 101/81/19 98/74/19 88/73/19 87/82/19
f 89/75/25 90/79/25 87/82/25 88/73/25
f 103/71/21 102/83/21 92/84/21 94/72/21
f 96/85/22 105/86/22 106/77/22 95/76/22
f 97/87/23 104/88/23 105/86/23 96/85/23
f 95/76/5 94/72/5 92/84/5 96/85/5
f 107/89/4 91/90/4 92/84/4 102/83/4
f 96/85/26 92/84/26 91/90/26 97/87/26
f 122/91/1 111/92/1 110/93/1 120/94/1
f 112/95/2 115/96/2 128/97/2 123/98/2
f 113/99/3 114/100/3 115/96/3 112/95/3
f 123/98/19 120/94/19 110/93/19 112/95/19
f 116/101/5 109/102/5 110/93/5 111/92/5
f 112/95/27 110/93/27 109/102/27 113/99/27
f 122/91/8 120/94/8 118/103/8 121/104/8
f 124/105/9 123/98/9 128/97/9 127/106/9
f 125/107/10 124/105/10 127/106/10 126/108/10
f 123/98/19 124/105/19 118/103/19 120/94/19
f 129/109/11 121/104/11 118/103/11 117/110/11
f 124/105/28 125/107/28 117/110/28 118/103/28
f 144/111/29 82/112/29 166/113/29 174/114/29
f 141/115/30 77/116/30 153/117/30 172/118/30
f 149/119/30 150/120/30 178/121/30 177/122/30
f 77/123/30 142/124/30 173/125/30 153/126/30
f 150/127/31 104/128/31 168/129/31 178/130/31
f 149/119/5 38/131/5 140/132/5 150/120/5
f 133/133/19 39/134/19 131/135/19 135/136/19
f 37/137/11 48/138/11 131/139/11 39/140/11
f 35/141/4 138/142/4 142/124/4 77/123/4
f 132/143/11 35/144/11 77/116/11 141/115/11
f 137/145/4 36/146/4 143/147/4 145/148/4
f 136/149/5 144/150/5 143/151/5 36/152/5
f 40/153/5 146/154/5 148/155/5 139/156/5
f 134/157/19 147/158/19 146/159/19 40/160/19
f 160/161/11 159/162/11 158/163/11 157/164/11
f 172/118/11 153/117/11 154/165/11 163/166/11
f 175/167/19 170/168/19 152/169/19 151/170/19
f 161/171/19 157/172/19 158/173/19 162/174/19
f 174/175/5 166/176/5 156/177/5 155/178/5
f 153/126/4 173/125/4 164/179/4 154/180/4
f 171/181/4 155/182/4 156/183/4 165/184/4
f 151/185/5 152/186/5 169/187/5 176/188/5
f 167/189/5 177/122/5 178/121/5 168/190/5
f 145/148/30 143/147/30 155/182/30 171/181/30
f 143/151/30 144/150/30 174/175/30 155/178/30
f 135/136/30 131/135/30 157/172/30 161/171/30
f 147/191/32 114/192/32 170/193/32 175/194/32
f 99/195/33 148/196/33 176/197/33 169/198/33
f 131/139/30 48/138/30 160/161/30 157/164/30
f 148/155/30 146/154/30 151/185/30 176/188/30
f 126/199/34 135/200/34 161/201/34 162/202/34
f 146/159/30 147/158/30 175/167/30 151/170/30
f 60/203/35 141/204/35 172/205/35 163/206/35
f 48/207/36 31/208/36 159/209/36 160/210/36
f 32/211/37 149/212/37 177/213/37 167/214/37
f 7/14/19 1/12/19 179/215/19 182/216/19
f 4/9/19 13/10/19 184/217/19 180/218/19
f 5/22/19 7/14/19 182/216/19 181/219/19
f 18/20/19 11/19/19 183/220/19 185/221/19
f 1/12/19 4/9/19 180/218/19 179/215/19
f 11/19/19 5/22/19 181/219/19 183/220/19
usemtl Wood
f 64/222/38 53/223/38 43/224/38 50/225/38
f 64/222/39 63/226/39 51/227/39 53/223/39
f 86/228/40 79/229/40 65/230/40 71/231/40
f 86/228/41 71/231/41 69/232/41 85/233/41
f 108/234/40 101/235/40 87/236/40 93/237/40
f 108/234/41 93/237/41 91/238/41 107/239/41
f 130/240/42 119/241/42 109/242/42 116/243/42
f 130/240/43 129/244/43 117/245/43 119/241/43
f 29/246/44 60/247/44 163/166/44 154/165/44
f 33/248/30 29/249/30 30/250/30 34/251/30
f 31/252/44 33/253/44 158/163/44 159/162/44
f 42/254/44 29/255/44 154/180/44 164/179/44
f 30/256/44 41/257/44 165/184/44 156/183/44
f 82/258/44 30/259/44 156/177/44 166/176/44
f 104/260/44 32/261/44 167/189/44 168/190/44
f 34/262/44 99/263/44 169/187/44 152/186/44
f 114/264/44 34/265/44 152/169/44 170/168/44
f 33/266/44 126/267/44 162/174/44 158/173/44
usemtl Stone
f 181/268/45 182/269/45 189/270/45 188/271/45
f 185/272/46 183/273/46 190/274/46 192/275/46
f 179/276/47 180/277/47 187/278/47 186/279/47
f 183/273/48 181/268/48 188/271/48 190/274/48
f 182/269/49 179/276/49 186/279/49 189/270/49
f 180/277/50 184/280/50 191/281/50 187/278/50
f 192/275/51 190/274/51 194/282/51 196/283/51
f 186/279/52 187/278/52 193/284/52 199/285/52
f 189/270/53 197/286/53 198/287/53 188/271/53
f 187/278/54 191/281/54 195/288/54 193/284/54
f 188/271/55 198/287/55 194/282/55 190/274/55
f 189/270/56 186/279/56 199/285/56 197/286/56
