# Blender v2.90.1 OBJ File: 'FirstFloor.blend'
# www.blender.org
mtllib Kitchen.mtl
o Kitchen_Plane.004
v -15.000000 0.000000 -20.000000
v -7.500000 0.000000 -29.280178
v -15.000000 0.000000 -29.280178
v -7.500000 0.000000 -20.000000
v -15.000000 1.500000 -20.000000
v -7.500000 1.500000 -29.280178
v -15.000000 1.500000 -29.280178
v -7.500000 1.500000 -20.000000
v -7.614428 -0.000000 -22.573383
v -7.613867 2.000002 -22.573383
v -7.613867 2.098233 -22.654705
v -7.613867 -0.000000 -22.684998
v -7.614428 -0.000000 -21.426617
v -7.613867 2.000002 -21.426617
v -7.613867 -0.000000 -22.000000
v -7.613867 2.035947 -22.000000
v -7.613867 2.170762 -22.000000
v -7.613867 2.098233 -21.345295
v -7.613867 -0.000000 -21.315002
v -7.500000 2.000002 -22.573383
v -7.500000 -0.000000 -22.684998
v -7.500000 2.098233 -22.654705
v -7.500000 0.013214 -22.573383
v -7.500000 2.000002 -21.426617
v -7.500000 2.035947 -22.000000
v -7.500000 -0.000000 -21.315002
v -7.500000 2.098233 -21.345295
v -7.500000 2.170762 -22.000000
v -7.500000 0.013214 -21.426617
v -7.500000 0.013214 -22.000000
v -7.500000 1.500000 -21.360723
v -7.500000 1.500000 -22.642403
v -15.000000 0.150000 -20.000000
v -7.500000 0.150000 -20.000000
v -7.500000 0.150000 -29.280178
v -15.000000 0.150000 -29.280178
v -7.500000 0.150000 -22.680861
v -7.500000 0.150000 -21.319443
v -7.550000 0.150000 -20.049999
v -7.550000 0.000000 -20.049999
v -14.950000 0.150000 -29.230179
v -14.950000 0.000000 -29.230179
v -14.950000 0.000000 -20.049999
v -7.550000 -0.000000 -21.315002
v -7.550000 0.000000 -29.230179
v -7.550000 -0.000000 -22.684998
v -14.950000 0.150000 -20.049999
v -7.550000 0.150000 -29.230179
v -7.550000 0.150000 -22.680861
v -7.550000 0.150000 -21.319443
vt 0.000000 0.000000
vt 0.000000 0.000000
vt 0.000000 0.000000
vt 0.000000 0.000000
vt 0.625000 0.500000
vt 0.750000 0.500000
vt 0.750000 0.625000
vt 0.625000 0.625000
vt 0.375000 0.500000
vt 0.375000 0.625000
vt 0.000000 0.000000
vt 0.000000 0.000000
vt 0.000000 0.000000
vt 0.000000 0.000000
vt 0.000000 0.000000
vt 0.000000 0.000000
vt 0.625000 0.500000
vt 0.625000 0.625000
vt 0.375000 0.500000
vt 0.375000 0.625000
vt 0.000000 0.000000
vt 0.000000 0.000000
vt 0.000000 0.000000
vt 0.000000 0.000000
vt 0.000000 0.000000
vt 0.000000 0.000000
vt 0.000000 0.000000
vt 0.000000 0.000000
vt 0.000000 0.000000
vt 0.000000 0.000000
vt 0.000000 0.000000
vt 0.000000 0.000000
vt 0.000000 0.000000
vt 0.000000 0.000000
vt 0.000000 0.000000
vt 0.000000 0.000000
vt 0.000000 0.000000
vt 0.000000 0.000000
vt 0.000000 0.000000
vt 0.000000 0.000000
vt 0.000000 0.000000
vt 0.000000 0.000000
vt 0.000000 0.000000
vt 0.000000 0.000000
vt 0.000000 0.000000
vt 0.000000 0.000000
vt 0.000000 0.000000
vt 0.000000 0.000000
vt 0.000000 0.000000
vt 0.000000 0.000000
vt 0.000000 0.000000
vt 0.000000 0.000000
vn 0.0000 -0.9980 0.0626
vn 0.0000 0.9939 -0.1101
vn -0.0000 0.0144 -0.9999
vn -1.0000 0.0000 0.0000
vn 0.0000 0.0000 1.0000
vn -1.0000 0.0002 -0.0028
vn -0.1150 0.9934 0.0001
vn 0.0000 -0.9980 -0.0626
vn 0.0000 0.9939 0.1101
vn 0.0000 0.0144 0.9999
vn 0.0000 0.0000 -1.0000
vn -1.0000 0.0002 0.0028
vn -0.1150 0.9934 -0.0001
vn -0.0000 -1.0000 -0.0000
vn 0.0000 1.0000 0.0000
vn 1.0000 0.0000 0.0000
vn 0.0000 -0.0276 0.9996
vn 0.0000 -0.0296 -0.9996
usemtl None
s off
f 25/1/1 16/2/1 10/3/1 20/4/1
f 11/5/2 17/6/2 28/7/2 22/8/2
f 12/9/3 11/5/3 22/8/3 21/10/3
f 17/6/4 11/5/4 10/3/4 16/2/4
f 23/11/5 20/4/5 10/3/5 9/12/5
f 11/5/6 12/9/6 9/12/6 10/3/6
f 30/13/7 23/11/7 9/12/7 15/14/7
f 25/1/8 24/15/8 14/16/8 16/2/8
f 18/17/9 27/18/9 28/7/9 17/6/9
f 19/19/10 26/20/10 27/18/10 18/17/10
f 17/6/4 16/2/4 14/16/4 18/17/4
f 29/21/11 13/22/11 14/16/11 24/15/11
f 18/17/12 14/16/12 13/22/12 19/19/12
f 30/13/13 15/14/13 13/22/13 29/21/13
f 2/23/14 21/24/14 46/25/14 45/26/14
f 36/27/15 33/28/15 47/29/15 41/30/15
f 33/28/15 34/31/15 39/32/15 47/29/15
f 26/33/14 4/34/14 40/35/14 44/36/14
f 34/31/11 33/28/11 5/37/11 8/38/11
f 3/39/15 1/40/15 4/34/15 2/23/15
f 35/41/15 36/27/15 41/30/15 48/42/15
f 31/43/4 38/44/4 34/31/4 8/38/4
f 6/45/4 35/41/4 37/46/4 32/47/4
f 7/48/5 36/27/5 35/41/5 6/45/5
f 7/48/16 5/37/16 33/28/16 36/27/16
f 41/30/16 47/29/16 43/49/16 42/50/16
f 41/30/5 42/50/5 45/26/5 48/42/5
f 48/42/4 45/26/4 46/25/4 49/51/4
f 50/52/4 44/36/4 40/35/4 39/32/4
f 40/35/11 43/49/11 47/29/11 39/32/11
f 34/31/15 38/44/15 50/52/15 39/32/15
f 21/24/17 37/46/17 49/51/17 46/25/17
f 3/39/14 2/23/14 45/26/14 42/50/14
f 37/46/15 35/41/15 48/42/15 49/51/15
f 4/34/14 1/40/14 43/49/14 40/35/14
f 38/44/18 26/33/18 44/36/18 50/52/18
f 1/40/14 3/39/14 42/50/14 43/49/14
