# Blender v2.90.1 OBJ File: 'FirstFloor.blend'
# www.blender.org
mtllib Library.mtl
o Library_Plane.011
v 3.500000 0.000000 -10.000021
v 3.500000 0.000000 -20.000021
v 14.999998 0.000000 -10.000000
v 14.999999 0.000000 -20.000000
v 3.500000 0.150000 -15.666455
v 10.336557 0.150000 -20.000008
v 3.500000 1.500000 -10.000021
v 3.500000 1.500000 -20.000021
v 14.999998 1.500000 -10.000000
v 14.999999 1.500000 -20.000000
v 3.500000 0.150000 -20.000021
v 3.614428 0.000000 -15.573382
v 3.613867 2.000002 -15.573382
v 3.500000 2.000002 -15.573382
v 3.613867 2.098234 -15.654706
v 3.613867 0.000000 -15.684998
v 3.500000 -0.000000 -15.684998
v 3.500000 2.098234 -15.654706
v 3.500000 0.013214 -15.573382
v 3.614428 0.000000 -14.426618
v 3.613867 2.000002 -14.426618
v 3.613867 0.000000 -15.000000
v 3.613867 2.035947 -15.000000
v 3.500000 2.000002 -14.426618
v 3.500000 2.035947 -15.000000
v 3.613867 2.170763 -15.000000
v 3.613867 2.098234 -14.345294
v 3.613867 0.000000 -14.315002
v 3.500000 -0.000000 -14.315002
v 3.500000 2.098234 -14.345294
v 3.500000 2.170763 -15.000000
v 3.500000 0.013214 -14.426618
v 3.500000 0.013214 -15.000000
v 11.573382 0.000000 -19.885572
v 11.573382 2.000002 -19.886133
v 11.573382 2.000002 -20.000000
v 11.654706 2.098234 -19.886133
v 11.684998 0.000000 -19.886133
v 11.684998 -0.000000 -20.000000
v 11.654706 2.098234 -20.000000
v 11.573382 0.013214 -20.000000
v 10.426618 0.000000 -19.885572
v 10.426618 2.000002 -19.886133
v 11.000000 0.000000 -19.886133
v 11.000000 2.035947 -19.886133
v 10.426618 2.000002 -20.000000
v 11.000000 2.035947 -20.000000
v 11.000000 2.170763 -19.886133
v 10.345294 2.098234 -19.886133
v 10.315002 0.000000 -19.886133
v 10.315002 -0.000000 -20.000000
v 10.345294 2.098234 -20.000000
v 11.000000 2.170763 -20.000000
v 10.426618 0.013214 -20.000000
v 11.000000 0.013214 -20.000000
v 3.500000 1.500000 -15.626287
v 3.500000 1.500000 -14.379688
v 10.383251 1.500000 -20.000021
v 11.614063 1.500000 -20.000000
v 14.999998 0.150000 -10.000000
v 14.999999 0.150000 -20.000000
v 3.500000 0.150000 -10.000021
v 3.500000 0.150000 -14.324940
v 11.674101 0.150000 -20.000000
v 10.315002 -0.000000 -19.950001
v 10.336557 0.150000 -19.950008
v 3.550000 0.150000 -19.950022
v 3.550000 0.000000 -19.950022
v 14.949999 0.150000 -19.950001
v 14.949999 0.000000 -19.950001
v 3.550000 0.000000 -10.050021
v 3.550000 -0.000000 -14.315002
v 3.550000 -0.000000 -15.684998
v 3.550000 0.150000 -15.666455
v 14.949998 0.000000 -10.050000
v 11.684998 -0.000000 -19.950001
v 14.949998 0.150000 -10.050000
v 3.550000 0.150000 -10.050021
v 3.550000 0.150000 -14.324940
v 11.674101 0.150000 -19.950001
vt 0.000000 0.000000
vt 0.000000 0.000000
vt 0.000000 0.000000
vt 0.000000 0.000000
vt 0.625000 0.500000
vt 0.625000 0.625000
vt 0.750000 0.625000
vt 0.750000 0.500000
vt 0.375000 0.500000
vt 0.375000 0.625000
vt 0.000000 0.000000
vt 0.000000 0.000000
vt 0.000000 0.000000
vt 0.000000 0.000000
vt 0.000000 0.000000
vt 0.000000 0.000000
vt 0.625000 0.500000
vt 0.625000 0.625000
vt 0.375000 0.500000
vt 0.375000 0.625000
vt 0.000000 0.000000
vt 0.000000 0.000000
vt 0.000000 0.000000
vt 0.000000 0.000000
vt 0.000000 0.000000
vt 0.000000 0.000000
vt 0.625000 0.500000
vt 0.625000 0.625000
vt 0.750000 0.625000
vt 0.750000 0.500000
vt 0.375000 0.500000
vt 0.375000 0.625000
vt 0.000000 0.000000
vt 0.000000 0.000000
vt 0.000000 0.000000
vt 0.000000 0.000000
vt 0.000000 0.000000
vt 0.000000 0.000000
vt 0.625000 0.500000
vt 0.625000 0.625000
vt 0.375000 0.500000
vt 0.375000 0.625000
vt 0.000000 0.000000
vt 0.000000 0.000000
vt 0.000000 0.000000
vt 0.000000 0.000000
vt 0.000000 0.000000
vt 0.000000 0.000000
vt 0.000000 0.000000
vt 0.000000 0.000000
vt 0.000000 0.000000
vt 0.000000 0.000000
vt 0.000000 0.000000
vt 0.000000 0.000000
vt 0.000000 0.000000
vt 0.000000 0.000000
vt 0.000000 0.000000
vt 0.000000 0.000000
vt 0.000000 0.000000
vt 0.000000 0.000000
vt 0.000000 0.000000
vt 0.000000 0.000000
vt 0.000000 0.000000
vt 0.000000 0.000000
vt 0.000000 0.000000
vt 0.000000 0.000000
vt 0.000000 0.000000
vt 0.000000 0.000000
vt 0.000000 0.000000
vt 0.000000 0.000000
vt 0.000000 0.000000
vt 0.000000 0.000000
vt 0.000000 0.000000
vt 0.000000 0.000000
vt 0.000000 0.000000
vt 0.000000 0.000000
vt 0.000000 0.000000
vt 0.000000 0.000000
vt 0.000000 0.000000
vt 0.000000 0.000000
vt 0.000000 0.000000
vt 0.000000 0.000000
vt 0.000000 0.000000
vt 0.000000 0.000000
vn 0.0000 -0.9980 0.0626
vn 0.0000 0.9939 -0.1101
vn 0.0000 0.0144 -0.9999
vn 1.0000 0.0000 0.0000
vn 0.0000 0.0000 1.0000
vn 1.0000 0.0002 -0.0028
vn 0.1150 0.9934 0.0001
vn 0.0000 -0.9980 -0.0626
vn 0.0000 0.9939 0.1101
vn -0.0000 0.0144 0.9999
vn 0.0000 0.0000 -1.0000
vn 1.0000 0.0002 0.0028
vn 0.1150 0.9934 -0.0001
vn -0.0626 -0.9980 0.0000
vn 0.1101 0.9939 0.0000
vn 0.9999 0.0144 -0.0000
vn -1.0000 0.0000 0.0000
vn 0.0028 0.0002 1.0000
vn -0.0001 0.9934 0.1150
vn 0.0626 -0.9980 0.0000
vn -0.1101 0.9939 0.0000
vn -0.9999 0.0144 -0.0000
vn -0.0028 0.0002 1.0000
vn 0.0001 0.9934 0.1150
vn 0.0000 -0.1227 0.9924
vn -0.0000 1.0000 -0.0000
vn 0.0000 -1.0000 -0.0000
vn -0.9974 -0.0725 0.0000
vn 0.0000 -0.0661 -0.9978
vn 0.9898 -0.1422 0.0000
usemtl None
s off
f 25/1/1 14/2/1 13/3/1 23/4/1
f 15/5/2 18/6/2 31/7/2 26/8/2
f 16/9/3 17/10/3 18/6/3 15/5/3
f 26/8/4 23/4/4 13/3/4 15/5/4
f 19/11/5 12/12/5 13/3/5 14/2/5
f 15/5/6 13/3/6 12/12/6 16/9/6
f 33/13/7 22/14/7 12/12/7 19/11/7
f 25/1/8 23/4/8 21/15/8 24/16/8
f 27/17/9 26/8/9 31/7/9 30/18/9
f 28/19/10 27/17/10 30/18/10 29/20/10
f 26/8/4 27/17/4 21/15/4 23/4/4
f 32/21/11 24/16/11 21/15/11 20/22/11
f 27/17/12 28/19/12 20/22/12 21/15/12
f 33/13/13 32/21/13 20/22/13 22/14/13
f 47/23/14 36/24/14 35/25/14 45/26/14
f 37/27/15 40/28/15 53/29/15 48/30/15
f 38/31/16 39/32/16 40/28/16 37/27/16
f 48/30/5 45/26/5 35/25/5 37/27/5
f 41/33/17 34/34/17 35/25/17 36/24/17
f 37/27/18 35/25/18 34/34/18 38/31/18
f 55/35/19 44/36/19 34/34/19 41/33/19
f 47/23/20 45/26/20 43/37/20 46/38/20
f 49/39/21 48/30/21 53/29/21 52/40/21
f 50/41/22 49/39/22 52/40/22 51/42/22
f 48/30/5 49/39/5 43/37/5 45/26/5
f 54/43/4 46/38/4 43/37/4 42/44/4
f 49/39/23 50/41/23 42/44/23 43/37/23
f 55/35/24 54/43/24 42/44/24 44/36/24
f 5/45/25 17/46/25 73/47/25 74/48/25
f 63/49/26 62/50/26 78/51/26 79/52/26
f 60/53/11 62/50/11 7/54/11 9/55/11
f 17/46/27 2/56/27 68/57/27 73/47/27
f 63/49/4 57/58/4 7/54/4 62/50/4
f 64/59/28 39/60/28 76/61/28 80/62/28
f 2/56/26 1/63/26 3/64/26 4/65/26
f 58/66/5 8/67/5 11/68/5 6/69/5
f 8/67/4 56/70/4 5/45/4 11/68/4
f 1/63/27 29/71/27 72/72/27 71/73/27
f 29/71/29 63/49/29 79/52/29 72/72/29
f 10/74/5 59/75/5 64/59/5 61/76/5
f 10/74/17 61/76/17 60/53/17 9/55/17
f 69/77/17 70/78/17 75/79/17 77/80/17
f 69/77/5 80/62/5 76/61/5 70/78/5
f 67/81/4 74/48/4 73/47/4 68/57/4
f 66/82/5 67/81/5 68/57/5 65/83/5
f 72/72/4 79/52/4 78/51/4 71/73/4
f 75/79/11 71/73/11 78/51/11 77/80/11
f 6/69/26 11/68/26 67/81/26 66/82/26
f 62/50/26 60/53/26 77/80/26 78/51/26
f 2/56/27 51/84/27 65/83/27 68/57/27
f 11/68/26 5/45/26 74/48/26 67/81/26
f 61/76/26 64/59/26 80/62/26 69/77/26
f 3/64/27 1/63/27 71/73/27 75/79/27
f 51/84/30 6/69/30 66/82/30 65/83/30
f 60/53/26 61/76/26 69/77/26 77/80/26
f 4/65/27 3/64/27 75/79/27 70/78/27
f 39/60/27 4/65/27 70/78/27 76/61/27
